<svg width="16" height="16" viewBox="0 0 16 16" fill="none" xmlns="http://www.w3.org/2000/svg">
<path fill-rule="evenodd" clip-rule="evenodd" d="M6.33331 2.99839L7.99998 3.68739L9.66665 2.99839C10.7365 2.5561 11.9301 2.5561 13 2.99839L14.2476 3.51415C14.5007 3.61878 14.6666 3.87213 14.6666 4.15386V12.3157C14.6666 12.6962 14.3682 13.0047 14 13.0047C13.9152 13.0047 13.8311 12.9879 13.7524 12.9554L13 12.6443C11.9301 12.202 10.7365 12.202 9.66665 12.6443L7.99998 13.3333L6.33331 12.6443C5.26341 12.202 4.06988 12.202 2.99998 12.6443L2.24757 12.9554C1.90572 13.0967 1.51774 12.9249 1.381 12.5716C1.3495 12.4902 1.33331 12.4033 1.33331 12.3157V4.15386C1.33331 3.87213 1.49928 3.61878 1.75239 3.51415L2.99998 2.99839C4.06988 2.5561 5.26341 2.5561 6.33331 2.99839ZM3.50937 4.23059L2.66665 4.57897V11.3427C4.01693 10.836 5.505 10.8591 6.8427 11.4121L7.33331 11.6147V4.85467L5.82393 4.23059C5.08023 3.92314 4.25306 3.92314 3.50937 4.23059ZM10.176 4.23059L8.66665 4.854V11.6147L9.15726 11.4121C10.495 10.8591 11.983 10.836 13.3333 11.3427V4.57897L12.4906 4.23059C11.7469 3.92314 10.9197 3.92314 10.176 4.23059Z" fill="black" fill-opacity="0.5"/>
</svg>
