<svg width="16" height="16" viewBox="0 0 16 16" fill="none" xmlns="http://www.w3.org/2000/svg">
<path fill-rule="evenodd" clip-rule="evenodd" d="M12.6666 1.33333C13.7712 1.33333 14.6666 2.22876 14.6666 3.33333V12.6667C14.6666 13.7712 13.7712 14.6667 12.6666 14.6667H3.33331C2.22874 14.6667 1.33331 13.7712 1.33331 12.6667V3.33333C1.33331 2.22876 2.22874 1.33333 3.33331 1.33333H12.6666ZM12.6666 2.66667H3.33331C2.96512 2.66667 2.66665 2.96514 2.66665 3.33333V12.6667C2.66665 13.0349 2.96512 13.3333 3.33331 13.3333H12.6666C13.0348 13.3333 13.3333 13.0349 13.3333 12.6667V3.33333C13.3333 2.96514 13.0348 2.66667 12.6666 2.66667ZM5.33331 9.33333C5.7015 9.33333 5.99998 9.63181 5.99998 10V11.3333C5.99998 11.7015 5.7015 12 5.33331 12C4.96512 12 4.66665 11.7015 4.66665 11.3333V10C4.66665 9.63181 4.96512 9.33333 5.33331 9.33333ZM7.99998 4C8.36817 4 8.66665 4.29848 8.66665 4.66667V11.3333C8.66665 11.7015 8.36817 12 7.99998 12C7.63179 12 7.33331 11.7015 7.33331 11.3333V4.66667C7.33331 4.29848 7.63179 4 7.99998 4ZM10.6666 6.66667C11.0348 6.66667 11.3333 6.96514 11.3333 7.33333V11.3333C11.3333 11.7015 11.0348 12 10.6666 12C10.2985 12 9.99998 11.7015 9.99998 11.3333V7.33333C9.99998 6.96514 10.2985 6.66667 10.6666 6.66667Z" fill="black" fill-opacity="0.5"/>
</svg>
