<svg width="16" height="16" viewBox="0 0 16 16" fill="none" xmlns="http://www.w3.org/2000/svg">
<path fill-rule="evenodd" clip-rule="evenodd" d="M12 3.2C13.3255 3.2 14.4 4.27452 14.4 5.6V10.4C14.4 11.7255 13.3255 12.8 12 12.8H3.99998C2.67449 12.8 1.59998 11.7255 1.59998 10.4V5.6C1.59998 4.27452 2.67449 3.2 3.99998 3.2H12ZM12.8 5.84L8.52678 9.40206C8.25029 9.64399 7.84882 9.66415 7.5515 9.46254L7.47317 9.40206L3.19998 5.8408V10.4C3.19998 10.8418 3.55815 11.2 3.99998 11.2H12C12.4418 11.2 12.8 10.8418 12.8 10.4V5.84ZM11.5456 4.8H4.45357L7.99997 7.73699L11.5456 4.8Z" fill="black" fill-opacity="0.5"/>
</svg>
