<svg width="16" height="16" viewBox="0 0 16 16" fill="none" xmlns="http://www.w3.org/2000/svg">
<path fill-rule="evenodd" clip-rule="evenodd" d="M1.99998 1.33333H7.33331C8.20415 1.33333 8.94499 1.8899 9.21953 2.66672L12.6666 2.66667C13.7318 2.66667 14.6024 3.49928 14.6633 4.54915L14.6666 4.66667V10C14.6666 11.0651 13.834 11.9358 12.7842 11.9966L12.6666 12H9.99998C9.12939 12 8.38872 11.4437 8.114 10.6673L2.66665 10.6667V14C2.66665 14.3682 2.36817 14.6667 1.99998 14.6667C1.63179 14.6667 1.33331 14.3682 1.33331 14V2C1.33331 1.63181 1.63179 1.33333 1.99998 1.33333ZM9.33331 4V10C9.33331 10.3419 9.59067 10.6237 9.92223 10.6622L9.99998 10.6667H12.6666C13.0085 10.6667 13.2903 10.4093 13.3288 10.0777L13.3333 10V4.66667C13.3333 4.32477 13.076 4.04299 12.7444 4.00448L12.6666 4H9.33331ZM7.33331 2.66667H2.66665V9.33333H7.99998V3.33333C7.99998 2.99144 7.74262 2.70966 7.41106 2.67115L7.33331 2.66667Z" fill="black" fill-opacity="0.5"/>
</svg>
