<svg width="16" height="16" viewBox="0 0 16 16" fill="none" xmlns="http://www.w3.org/2000/svg">
<path fill-rule="evenodd" clip-rule="evenodd" d="M11.3333 1.33334C11.7015 1.33334 12 1.63182 12 2.00001V2.66668H12.6666C13.7712 2.66668 14.6666 3.56211 14.6666 4.66668V12.6667C14.6666 13.7712 13.7712 14.6667 12.6666 14.6667H3.33331C2.22874 14.6667 1.33331 13.7712 1.33331 12.6667V4.66668C1.33331 3.56211 2.22874 2.66668 3.33331 2.66668H3.99998V2.00001C3.99998 1.63182 4.29846 1.33334 4.66665 1.33334C5.03484 1.33334 5.33331 1.63182 5.33331 2.00001V2.66668H10.6666V2.00001C10.6666 1.63182 10.9651 1.33334 11.3333 1.33334ZM13.3333 8.00001H2.66665V12.6667C2.66665 13.0349 2.96513 13.3333 3.33332 13.3333H12.6666C13.0348 13.3333 13.3333 13.0349 13.3333 12.6667V8.00001ZM11.3333 9.33334C11.7015 9.33334 12 9.63182 12 10V11.3333C12 11.7015 11.7015 12 11.3333 12H9.99998C9.63179 12 9.33331 11.7015 9.33331 11.3333V10C9.33331 9.63182 9.63179 9.33334 9.99998 9.33334H11.3333ZM3.99998 4.00001H3.33332C2.96513 4.00001 2.66665 4.29849 2.66665 4.66668V6.66668H13.3333V4.66668C13.3333 4.29849 13.0348 4.00001 12.6666 4.00001H12V4.66668C12 5.03487 11.7015 5.33335 11.3333 5.33335C10.9651 5.33335 10.6666 5.03487 10.6666 4.66668V4.00001H5.33332V4.66668C5.33332 5.03487 5.03484 5.33335 4.66665 5.33335C4.29846 5.33335 3.99998 5.03487 3.99998 4.66668V4.00001Z" fill="black" fill-opacity="0.5"/>
</svg>
