<svg width="16" height="16" viewBox="0 0 16 16" fill="none" xmlns="http://www.w3.org/2000/svg">
<path fill-rule="evenodd" clip-rule="evenodd" d="M11 1.33331C13.2091 1.33331 15 3.12417 15 5.33331C15 7.49224 13.2896 9.25169 11.15 9.33055L11 9.33331H7.66667V10.6666H10.3333C10.7015 10.6666 11 10.9651 11 11.3333C11 11.7015 10.7015 12 10.3333 12H7.66667V14C7.66667 14.3682 7.36819 14.6666 7 14.6666C6.63181 14.6666 6.33333 14.3682 6.33333 14V12H3.66667C3.29848 12 3 11.7015 3 11.3333C3 10.9651 3.29848 10.6666 3.66667 10.6666H6.33333V9.33331H3.66667C3.29848 9.33331 3 9.03484 3 8.66665C3 8.32476 3.25736 8.04298 3.58892 8.00447L3.66667 7.99998H6.33333V1.99998C6.33333 1.63179 6.63181 1.33331 7 1.33331H11ZM11 2.66663H7.66668V7.99996H11C12.4728 7.99996 13.6667 6.80605 13.6667 5.33329C13.6667 3.90516 12.544 2.73924 11.1331 2.66989L11 2.66663Z" fill="black" fill-opacity="0.5"/>
</svg>
