<svg width="16" height="16" viewBox="0 0 16 16" fill="none" xmlns="http://www.w3.org/2000/svg">
<path fill-rule="evenodd" clip-rule="evenodd" d="M7.20001 1.60001C10.2928 1.60001 12.8 4.10721 12.8 7.20001C12.8 8.46111 12.3831 9.62485 11.6797 10.5609L11.7236 10.5953L11.7657 10.6343L14.1657 13.0343C14.4781 13.3467 14.4781 13.8533 14.1657 14.1657C13.8773 14.4541 13.4235 14.4763 13.1097 14.2322L13.0343 14.1657L10.6343 11.7657C10.607 11.7383 10.582 11.7095 10.5594 11.6794C9.62485 12.3831 8.46111 12.8 7.20001 12.8C4.10721 12.8 1.60001 10.2928 1.60001 7.20001C1.60001 4.10721 4.10721 1.60001 7.20001 1.60001ZM7.20002 3.2C4.99088 3.2 3.20002 4.99086 3.20002 7.2C3.20002 9.40914 4.99088 11.2 7.20002 11.2C9.40916 11.2 11.2 9.40914 11.2 7.2C11.2 4.99086 9.40916 3.2 7.20002 3.2Z" fill="black" fill-opacity="0.5"/>
</svg>
