<svg width="16" height="16" viewBox="0 0 16 16" fill="none" xmlns="http://www.w3.org/2000/svg">
<path fill-rule="evenodd" clip-rule="evenodd" d="M7.26503 1.33466L8.68003 1.33459C8.72281 1.33658 8.76039 1.34147 8.81314 1.35296C9.20011 1.43722 9.34723 1.57617 9.70736 2.42716L9.76606 2.56754L9.99238 3.12832L10.011 3.13597L10.3026 3.00397C10.9377 2.71997 11.2651 2.60035 11.4852 2.56697L11.5308 2.56111L11.6139 2.55663C11.8121 2.55663 12.014 2.62683 12.1685 2.74907L12.2416 2.81444L13.1462 3.7153L13.2091 3.78177C13.4932 4.09479 13.5198 4.3167 13.2055 5.12549L13.1009 5.38641L12.8543 5.96972L12.859 5.98111L13.4238 6.192L13.696 6.2996C14.3993 6.58715 14.5438 6.7404 14.6378 7.09243C14.6568 7.16341 14.6635 7.21177 14.6657 7.27179L14.6666 7.33698V8.6088C14.6666 8.69921 14.6635 8.75027 14.6413 8.83962C14.5477 9.21543 14.4088 9.35853 13.5636 9.71554L13.4242 9.77376L12.8673 9.99849L12.8634 10.0079L13.0648 10.4478C13.5656 11.5608 13.5831 11.8048 13.2539 12.1713L13.2128 12.216L12.2842 13.1439C12.1179 13.3119 11.8811 13.4045 11.6519 13.4045C11.4573 13.4045 11.1516 13.3119 10.6306 13.103L10.3516 12.9887L10.0339 12.8544L10.0157 12.8619L9.85154 13.3022C9.44957 14.3612 9.31185 14.5332 8.89891 14.6397C8.83789 14.6555 8.79425 14.6622 8.74469 14.6649L8.66301 14.6667H7.3904C7.31097 14.6667 7.26615 14.6643 7.18726 14.6472C6.80045 14.5633 6.65274 14.4241 6.2919 13.5726L6.23308 13.4321L6.00638 12.871L5.98894 12.8638L5.56541 13.0542C4.88798 13.3524 4.59451 13.4432 4.38535 13.4432C4.18948 13.4432 3.99003 13.3744 3.83137 13.251L3.75564 13.1848L2.85227 12.2826L2.74911 12.1701C2.50137 11.8786 2.48919 11.6526 2.79327 10.8746L2.95173 10.4851L3.14516 10.0304L3.14113 10.0207L2.7032 9.85748C1.8247 9.52411 1.55397 9.37057 1.42531 9.09024L1.39051 9.00203L1.36144 8.90437C1.34499 8.84194 1.33798 8.79721 1.33512 8.74631L1.33331 8.66236V7.38978C1.33331 7.29866 1.33647 7.24715 1.35916 7.15703C1.44375 6.82104 1.56382 6.67182 2.19629 6.38841L2.45842 6.27521L3.13153 6.00301L3.13614 5.9918L2.88448 5.43652C2.4692 4.49327 2.43481 4.20608 2.69682 3.88531L2.73266 3.84322L2.81756 3.75325L3.71742 2.85542C3.88229 2.68964 4.11811 2.59618 4.34764 2.59618C4.51182 2.59618 4.75287 2.66114 5.13868 2.80727L5.52682 2.96113L5.96684 3.14555L5.98487 3.13804L6.1503 2.69483C6.55602 1.62817 6.70084 1.44979 7.12879 1.35399C7.18277 1.34191 7.22128 1.33676 7.26503 1.33466ZM8.34865 2.66667H7.60536L7.50056 2.91235C7.46076 3.01003 7.41587 3.12412 7.36517 3.25654L7.13286 3.87796C7.07714 4.02508 6.97156 4.14693 6.83581 4.22315L6.76552 4.25736L6.21945 4.4846C6.08158 4.54197 5.9293 4.55107 5.78691 4.512L5.70286 4.48278L5.05681 4.21046L4.70785 4.0713L4.4733 3.98473L3.94649 4.51034L4.00849 4.66695C4.03272 4.72593 4.06061 4.79188 4.0924 4.86535L4.19978 5.10887L4.46909 5.6976C4.53359 5.8378 4.54708 5.99509 4.509 6.14274L4.47996 6.22995L4.25666 6.77257C4.19755 6.91623 4.09048 7.03395 3.95493 7.10655L3.88487 7.139L3.15982 7.43045L2.79737 7.58581L2.66665 7.64635V8.39979L2.82307 8.4676C2.88229 8.49237 2.94879 8.51937 3.02316 8.54884L3.2705 8.64482L3.87153 8.86802C4.02305 8.92264 4.14878 9.0299 4.22677 9.16882L4.26168 9.24082L4.485 9.78184C4.54235 9.92077 4.55075 10.0741 4.51042 10.2171L4.48038 10.3015L4.22119 10.9097L4.05864 11.3109L3.97946 11.524L4.5063 12.0502L4.66317 11.9881C4.72095 11.9646 4.78428 11.9382 4.85331 11.9087L5.33721 11.6954L5.68618 11.5347C5.83221 11.4649 5.99773 11.4511 6.15195 11.4939L6.22798 11.52L6.77727 11.7468C6.92286 11.8069 7.04166 11.9162 7.1138 12.0544L7.1459 12.1258L7.28259 12.4707L7.47712 12.9438L7.5897 13.2023L7.65075 13.3333H8.39623L8.5027 13.0824L8.64136 12.7283L8.86714 12.1229C8.92282 11.9745 9.0292 11.8516 9.16612 11.7751L9.23703 11.7408L9.78398 11.5151C9.92025 11.4589 10.0705 11.4497 10.2113 11.4875L10.2945 11.5159L10.8095 11.7343L11.1854 11.8874L11.3911 11.9667L11.5269 12.0159L12.0543 11.4894L11.9527 11.2385L11.8002 10.8909L11.5304 10.3026C11.4656 10.1622 11.4521 10.0045 11.4904 9.8566L11.5195 9.76923L11.7424 9.22896C11.8012 9.08641 11.9073 8.96942 12.0416 8.89681L12.111 8.86429L12.7251 8.61744L13.0385 8.48603L13.1247 8.44854L13.3333 8.35312V7.60042L13.1242 7.51115L12.841 7.39907L12.126 7.13293C11.9749 7.07792 11.8496 6.97047 11.772 6.83155L11.7372 6.75956L11.5143 6.21635C11.4574 6.07776 11.4492 5.92493 11.4894 5.78237L11.5193 5.69826L11.7263 5.21434C11.7802 5.08636 11.8271 4.97288 11.8676 4.87257L11.9402 4.68915L12.0193 4.47481L11.4922 3.94988L11.3353 4.01199C11.2484 4.04739 11.149 4.0894 11.0361 4.13846L10.9188 4.18989L10.3036 4.46893C10.1636 4.53307 10.0067 4.54641 9.85938 4.50842L9.77237 4.47947L9.22344 4.25383C9.07974 4.19476 8.96198 4.08773 8.88933 3.95219L8.85685 3.88214L8.66276 3.39655L8.52211 3.05635L8.44421 2.87542L8.34865 2.66667ZM8.00029 5.33334C9.47106 5.33334 10.6666 6.52868 10.6666 7.99943C10.6666 9.47026 9.47097 10.6667 8.00029 10.6667C6.5292 10.6667 5.33331 9.47047 5.33331 7.99943C5.33331 6.52847 6.52911 5.33334 8.00029 5.33334ZM8.00029 6.66667C7.26532 6.66667 6.66665 7.26502 6.66665 7.99943C6.66665 8.73417 7.26566 9.33334 8.00029 9.33334C8.73441 9.33334 9.33331 8.73406 9.33331 7.99943C9.33331 7.26512 8.73474 6.66667 8.00029 6.66667Z" fill="black" fill-opacity="0.5"/>
</svg>
