<svg width="16" height="16" viewBox="0 0 16 16" fill="none" xmlns="http://www.w3.org/2000/svg">
<path fill-rule="evenodd" clip-rule="evenodd" d="M12.6666 2.66666C13.7712 2.66666 14.6666 3.56209 14.6666 4.66666V6C14.6666 6.36819 14.3682 6.66666 14 6.66666C13.2636 6.66666 12.6666 7.26362 12.6666 8C12.6666 8.70291 13.2106 9.27877 13.9005 9.32967L14.0777 9.33782C14.4093 9.37633 14.6666 9.65811 14.6666 10V11.3333C14.6666 12.4379 13.7712 13.3333 12.6666 13.3333H3.33331C2.22874 13.3333 1.33331 12.4379 1.33331 11.3333V10C1.33331 9.65811 1.59067 9.37633 1.92223 9.33782L2.09949 9.32967C2.78939 9.27877 3.33331 8.70291 3.33331 8C3.33331 7.26362 2.73636 6.66666 1.99998 6.66666C1.63179 6.66666 1.33331 6.36819 1.33331 6V4.66666C1.33331 3.56209 2.22874 2.66666 3.33331 2.66666H12.6666ZM8.66665 4H3.33331C2.96512 4 2.66665 4.29847 2.66665 4.66666V5.41734C3.8168 5.71337 4.66665 6.75744 4.66665 8C4.66665 9.24256 3.8168 10.2866 2.66665 10.5827V11.3333C2.66665 11.7015 2.96512 12 3.33331 12H8.66665V11.3333C8.66665 10.9651 8.96512 10.6667 9.33331 10.6667C9.7015 10.6667 9.99998 10.9651 9.99998 11.3333V12H12.6666C13.0348 12 13.3333 11.7015 13.3333 11.3333V10.5827C12.1832 10.2866 11.3333 9.24256 11.3333 8C11.3333 6.80346 12.1214 5.79098 13.2068 5.45328L13.3333 5.41734V4.66666C13.3333 4.29847 13.0348 4 12.6666 4H9.99998V4.66666C9.99998 5.03485 9.7015 5.33333 9.33331 5.33333C8.96512 5.33333 8.66665 5.03485 8.66665 4.66666V4ZM9.33331 6.66666C9.7015 6.66666 9.99998 6.96514 9.99998 7.33333V8.66666C9.99998 9.03485 9.7015 9.33333 9.33331 9.33333C8.96512 9.33333 8.66665 9.03485 8.66665 8.66666V7.33333C8.66665 6.96514 8.96512 6.66666 9.33331 6.66666Z" fill="black" fill-opacity="0.5"/>
</svg>
