<svg width="16" height="16" viewBox="0 0 16 16" fill="none" xmlns="http://www.w3.org/2000/svg">
<path fill-rule="evenodd" clip-rule="evenodd" d="M4.66665 10.6667H11.3333C13.1743 10.6667 14.6666 12.159 14.6666 14C14.6666 14.3682 14.3682 14.6667 14 14.6667C13.6581 14.6667 13.3763 14.4093 13.3378 14.0777L13.3299 13.8825C13.2713 12.8715 12.4618 12.062 11.4508 12.0034L11.3333 12H4.66665C3.56208 12 2.66665 12.8954 2.66665 14C2.66665 14.3682 2.36817 14.6667 1.99998 14.6667C1.63179 14.6667 1.33331 14.3682 1.33331 14C1.33331 12.2075 2.74818 10.7455 4.52205 10.6697L4.66665 10.6667H11.3333H4.66665ZM7.99998 1.33333C10.2091 1.33333 12 3.12419 12 5.33333C12 7.54247 10.2091 9.33333 7.99998 9.33333C5.79084 9.33333 3.99998 7.54247 3.99998 5.33333C3.99998 3.12419 5.79084 1.33333 7.99998 1.33333ZM7.99998 2.66666C6.52722 2.66666 5.33331 3.86057 5.33331 5.33333C5.33331 6.80609 6.52722 7.99999 7.99998 7.99999C9.47274 7.99999 10.6666 6.80609 10.6666 5.33333C10.6666 3.86057 9.47274 2.66666 7.99998 2.66666Z" fill="black"/>
</svg>
