<svg width="34" height="36" viewBox="0 0 34 36" fill="none" xmlns="http://www.w3.org/2000/svg">
<path fill-rule="evenodd" clip-rule="evenodd" d="M7.0835 6.83334H24.0835C26.3469 6.83334 28.197 8.60265 28.3263 10.8336L28.3335 11.0833L28.3348 15.5756C29.9848 16.1594 31.1668 17.7333 31.1668 19.5833V22.4167C31.1668 24.2667 29.9848 25.8406 28.3348 26.4244L28.3335 30.9167C28.3335 33.1801 26.5642 35.0302 24.3332 35.1595L24.0835 35.1667H7.0835C4.82011 35.1667 2.96998 33.3974 2.84071 31.1664L2.8335 30.9167V11.0833C2.8335 8.81996 4.6028 6.96982 6.83378 6.84056L7.0835 6.83334H24.0835H7.0835ZM24.0835 9.66668H7.0835C6.35698 9.66668 5.75819 10.2136 5.67636 10.9181L5.66683 11.0833V30.9167C5.66683 31.6432 6.21372 32.242 6.91828 32.3238L7.0835 32.3333H24.0835C24.81 32.3333 25.4088 31.7865 25.4906 31.0819L25.5002 30.9167V26.6667H24.0835C21.7363 26.6667 19.8335 24.7639 19.8335 22.4167V19.5833C19.8335 17.2361 21.7363 15.3333 24.0835 15.3333H25.5002V11.0833C25.5002 10.3568 24.9533 9.75804 24.2487 9.67621L24.0835 9.66668ZM26.9168 18.1667H24.0835C23.3011 18.1667 22.6668 18.8009 22.6668 19.5833V22.4167C22.6668 23.1991 23.3011 23.8333 24.0835 23.8333H26.9168C27.6992 23.8333 28.3335 23.1991 28.3335 22.4167V19.5833C28.3335 18.8009 27.6992 18.1667 26.9168 18.1667Z" fill="black"/>
</svg>
