<svg width="34" height="36" viewBox="0 0 34 36" fill="none" xmlns="http://www.w3.org/2000/svg">
<path fill-rule="evenodd" clip-rule="evenodd" d="M19.8334 6.83333C20.2091 6.83333 20.5695 6.98258 20.8351 7.24826L27.9185 14.3316C28.1842 14.5973 28.3334 14.9576 28.3334 15.3333V16.75C28.3334 17.5324 27.6991 18.1667 26.9167 18.1667H18.4167C17.6902 18.1667 17.0914 17.6198 17.0096 16.9152L17.0001 16.75L16.9987 9.66666H9.91675C9.13434 9.66666 8.50008 10.3009 8.50008 11.0833V30.9167C8.50008 31.6991 9.13434 32.3333 9.91675 32.3333H12.7501C13.5325 32.3333 14.1667 32.9676 14.1667 33.75C14.1667 34.5324 13.5325 35.1667 12.7501 35.1667H9.91675C7.56954 35.1667 5.66675 33.2639 5.66675 30.9167V11.0833C5.66675 8.73612 7.56954 6.83333 9.91675 6.83333H19.8334ZM24.4983 21.4149C25.009 20.9042 25.8126 20.865 26.3684 21.2971L26.5018 21.4149L30.7518 25.6649C31.2625 26.1756 31.3018 26.9792 30.8697 27.5349L30.7518 27.6684L23.6685 34.7517C23.4471 34.9731 23.16 35.1137 22.853 35.1544L22.6667 35.1667H18.4167C17.6902 35.1667 17.0914 34.6198 17.0096 33.9152L17.0001 33.75V29.5C17.0001 29.1869 17.1037 28.8845 17.292 28.6386L17.415 28.4983L24.4983 21.4149ZM25.5001 24.4201L19.8334 30.0868V32.3333H22.0799L27.7466 26.6667L25.5001 24.4201ZM19.832 10.2532L19.8334 15.3333H24.9136L19.832 10.2532Z" fill="white"/>
</svg>
