<svg width="34" height="34" viewBox="0 0 34 34" fill="none" xmlns="http://www.w3.org/2000/svg">
<path fill-rule="evenodd" clip-rule="evenodd" d="M23.375 2.83324C28.0694 2.83324 31.875 6.63882 31.875 11.3332C31.875 15.921 28.2404 19.6598 23.6937 19.8274L23.375 19.8332H16.2917V22.6666H21.9583C22.7407 22.6666 23.375 23.3008 23.375 24.0832C23.375 24.8656 22.7407 25.4999 21.9583 25.4999H16.2917V29.7499C16.2917 30.5323 15.6574 31.1666 14.875 31.1666C14.0926 31.1666 13.4583 30.5323 13.4583 29.7499V25.4999H7.79167C7.00926 25.4999 6.375 24.8656 6.375 24.0832C6.375 23.3008 7.00926 22.6666 7.79167 22.6666H13.4583V19.8332H7.79167C7.00926 19.8332 6.375 19.199 6.375 18.4166C6.375 17.6901 6.92189 17.0913 7.62645 17.0094L7.79167 16.9999H13.4583V4.2499C13.4583 3.4675 14.0926 2.83324 14.875 2.83324H23.375ZM23.3751 5.66647H16.2917V16.9998H23.3751C26.5047 16.9998 29.0417 14.4628 29.0417 11.3331C29.0417 8.29836 26.6561 5.82078 23.6579 5.67341L23.3751 5.66647Z" fill="black"/>
</svg>
