<svg width="34" height="34" viewBox="0 0 34 34" fill="none" xmlns="http://www.w3.org/2000/svg">
<path fill-rule="evenodd" clip-rule="evenodd" d="M13.4583 6.37157L17 7.83569L20.5417 6.37157C22.8152 5.43169 25.3515 5.43169 27.625 6.37157L30.2761 7.46755C30.814 7.68989 31.1667 8.22826 31.1667 8.82694V26.1708C31.1667 26.9794 30.5324 27.6349 29.75 27.6349C29.5698 27.6349 29.3912 27.5994 29.2239 27.5302L27.625 26.8692C25.3515 25.9293 22.8152 25.9293 20.5417 26.8692L17 28.3333L13.4583 26.8692C11.1848 25.9293 8.64855 25.9293 6.37501 26.8692L4.77615 27.5302C4.0497 27.8305 3.22525 27.4653 2.93467 26.7145C2.86773 26.5416 2.83334 26.357 2.83334 26.1708V8.82694C2.83334 8.22826 3.18602 7.68989 3.72387 7.46755L6.37501 6.37157C8.64855 5.43169 11.1848 5.43169 13.4583 6.37157ZM7.45746 8.98998L5.66668 9.73029V24.1033C8.53603 23.0265 11.6982 23.0757 14.5408 24.2508L15.5833 24.6812V10.3162L12.3759 8.98998C10.7955 8.33667 9.03782 8.33667 7.45746 8.98998ZM21.6241 8.98998L18.4167 10.3147V24.6812L19.4592 24.2508C22.3018 23.0757 25.464 23.0265 28.3333 24.1033V9.73029L26.5426 8.98998C24.9622 8.33667 23.2045 8.33667 21.6241 8.98998Z" fill="black"/>
</svg>
