<svg width="34" height="34" viewBox="0 0 34 34" fill="none" xmlns="http://www.w3.org/2000/svg">
<path fill-rule="evenodd" clip-rule="evenodd" d="M26.9163 9.66662C29.2636 9.66662 31.1663 11.5694 31.1663 13.9166V16.75C31.1663 17.5324 30.5321 18.1666 29.7497 18.1666C28.1849 18.1666 26.9163 19.4351 26.9163 21C26.9163 22.4936 28.0722 23.7174 29.5382 23.8255L29.9149 23.8428C30.6195 23.9247 31.1663 24.5234 31.1663 25.25V28.0833C31.1663 30.4305 29.2636 32.3333 26.9163 32.3333H7.08301C4.7358 32.3333 2.83301 30.4305 2.83301 28.0833V25.25C2.83301 24.5234 3.3799 23.9247 4.08446 23.8428L4.46113 23.8255C5.92718 23.7174 7.08301 22.4936 7.08301 21C7.08301 19.4351 5.81448 18.1666 4.24967 18.1666C3.46727 18.1666 2.83301 17.5324 2.83301 16.75V13.9166C2.83301 11.5694 4.7358 9.66662 7.08301 9.66662H26.9163ZM18.4158 12.5H7.08247C6.30006 12.5 5.6658 13.1343 5.6658 13.9167V15.5119C8.10987 16.1409 9.9158 18.3596 9.9158 21C9.9158 23.6404 8.10987 25.8591 5.6658 26.4881V28.0833C5.6658 28.8657 6.30006 29.5 7.08247 29.5H18.4158V28.0833C18.4158 27.3009 19.0501 26.6667 19.8325 26.6667C20.6149 26.6667 21.2491 27.3009 21.2491 28.0833V29.5H26.9158C27.6982 29.5 28.3325 28.8657 28.3325 28.0833V26.4881C25.8884 25.8591 24.0825 23.6404 24.0825 21C24.0825 18.4574 25.7571 16.3058 28.0636 15.5882L28.3325 15.5119V13.9167C28.3325 13.1343 27.6982 12.5 26.9158 12.5H21.2491V13.9167C21.2491 14.6991 20.6149 15.3333 19.8325 15.3333C19.0501 15.3333 18.4158 14.6991 18.4158 13.9167V12.5ZM19.8325 18.1666C20.6149 18.1666 21.2491 18.8009 21.2491 19.5833V22.4166C21.2491 23.199 20.6149 23.8333 19.8325 23.8333C19.0501 23.8333 18.4158 23.199 18.4158 22.4166V19.5833C18.4158 18.8009 19.0501 18.1666 19.8325 18.1666Z" fill="black"/>
</svg>
