<svg width="34" height="35" viewBox="0 0 34 35" fill="none" xmlns="http://www.w3.org/2000/svg">
<path fill-rule="evenodd" clip-rule="evenodd" d="M6.1585 12H19.4585C21.2293 12 22.6767 13.3842 22.7779 15.1296L22.7835 15.325L22.7845 18.8396C24.0754 19.2963 25.0002 20.5277 25.0002 21.975V24.1917C25.0002 25.639 24.0754 26.8704 22.7845 27.3271L22.7835 30.8417C22.7835 32.6124 21.3993 34.0599 19.6539 34.161L19.4585 34.1667H6.1585C4.38773 34.1667 2.94027 32.7825 2.83914 31.037L2.8335 30.8417V15.325C2.8335 13.5542 4.21772 12.1068 5.96313 12.0056L6.1585 12H19.4585H6.1585ZM19.4586 14.2167H6.15862C5.59023 14.2167 5.12177 14.6445 5.05775 15.1957L5.05029 15.325V30.8417C5.05029 31.4101 5.47815 31.8785 6.02937 31.9425L6.15862 31.95H19.4586C20.027 31.95 20.4955 31.5221 20.5595 30.9709L20.567 30.8417V27.5167H19.4586C17.6223 27.5167 16.1336 26.028 16.1336 24.1917V21.975C16.1336 20.1387 17.6223 18.65 19.4586 18.65H20.567V15.325C20.567 14.7566 20.1391 14.2881 19.5879 14.2241L19.4586 14.2167ZM21.6753 20.8667H19.4586C18.8465 20.8667 18.3503 21.3629 18.3503 21.975V24.1917C18.3503 24.8038 18.8465 25.3 19.4586 25.3H21.6753C22.2874 25.3 22.7836 24.8038 22.7836 24.1917V21.975C22.7836 21.3629 22.2874 20.8667 21.6753 20.8667Z" fill="black"/>
<path d="M24.4 7C23.7183 7 23.3621 6.13789 23.7734 5.58064L23.8343 5.50666L25.6672 3.50145C24.6518 2.449 23.0414 1.75132 21.2 1.75132C18.0654 1.75132 15.6 3.77319 15.6 6.12522C15.6 6.60835 15.2418 7 14.8 7C14.3582 7 14 6.60835 14 6.12522C14 2.67971 17.2654 0.00175372 21.2 0.00175372C23.4454 0.00175372 25.4728 0.873856 26.7998 2.26303L28.6343 0.257971C29.1164 -0.26915 29.9257 0.0650286 29.9952 0.777132L30 0.876534V6.12522C30 6.57384 29.6912 6.94358 29.2933 6.99411L29.2 7H24.4Z" fill="black"/>
</svg>
