<svg width="700" height="190" viewBox="0 0 535 190" fill="none" xmlns="http://www.w3.org/2000/svg">
<path opacity="0.5" d="M6.288 30.24C6.288 29.68 6.18 29.188 5.964 28.764C5.748 28.34 5.448 28.008 5.064 27.768C4.688 27.528 4.26 27.408 3.78 27.408C3.572 27.408 3.36 27.436 3.144 27.492C2.936 27.54 2.732 27.616 2.532 27.72L3.096 25.5H6.264V24.6H2.304L1.2 29.076C1.488 28.876 1.74 28.724 1.956 28.62C2.18 28.508 2.4 28.432 2.616 28.392C2.84 28.344 3.084 28.32 3.348 28.32C3.708 28.32 4.028 28.4 4.308 28.56C4.596 28.72 4.82 28.944 4.98 29.232C5.148 29.52 5.232 29.856 5.232 30.24C5.232 30.624 5.156 30.96 5.004 31.248C4.86 31.536 4.648 31.76 4.368 31.92C4.088 32.08 3.748 32.16 3.348 32.16C3.044 32.16 2.752 32.096 2.472 31.968C2.192 31.832 1.944 31.66 1.728 31.452C1.52 31.236 1.352 31.008 1.224 30.768L0.36 31.356C0.544 31.676 0.768 31.972 1.032 32.244C1.304 32.508 1.628 32.72 2.004 32.88C2.388 33.04 2.836 33.12 3.348 33.12C3.756 33.12 4.136 33.06 4.488 32.94C4.84 32.82 5.152 32.64 5.424 32.4C5.696 32.16 5.908 31.86 6.06 31.5C6.212 31.14 6.288 30.72 6.288 30.24ZM10.4311 27.48V28.38H13.6711V27.48H10.4311ZM11.5711 27.72V33H12.5311V27.72H11.5711ZM19.6144 27.48V33H20.5744V27.48H19.6144ZM14.6344 27.48V33H15.5944V27.48H14.6344ZM15.1984 30.408H16.9144C17.1464 30.408 17.3384 30.444 17.4904 30.516C17.6504 30.58 17.7704 30.68 17.8504 30.816C17.9304 30.944 17.9704 31.1 17.9704 31.284C17.9704 31.468 17.9304 31.628 17.8504 31.764C17.7704 31.892 17.6504 31.992 17.4904 32.064C17.3384 32.128 17.1464 32.16 16.9144 32.16H15.1984V33H16.9144C17.2984 33 17.6424 32.94 17.9464 32.82C18.2504 32.7 18.4904 32.512 18.6664 32.256C18.8424 32 18.9304 31.676 18.9304 31.284C18.9304 30.884 18.8424 30.56 18.6664 30.312C18.4904 30.056 18.2504 29.868 17.9464 29.748C17.6424 29.628 17.2984 29.568 16.9144 29.568H15.1984V30.408ZM22.8008 30.24C22.8008 29.856 22.8808 29.516 23.0408 29.22C23.2088 28.916 23.4328 28.68 23.7128 28.512C24.0008 28.344 24.3248 28.26 24.6848 28.26C24.9808 28.26 25.2568 28.308 25.5128 28.404C25.7768 28.492 26.0048 28.612 26.1968 28.764C26.3888 28.916 26.5248 29.084 26.6048 29.268V28.068C26.4128 27.844 26.1368 27.672 25.7768 27.552C25.4248 27.424 25.0608 27.36 24.6848 27.36C24.1488 27.36 23.6648 27.484 23.2327 27.732C22.8008 27.98 22.4568 28.32 22.2008 28.752C21.9528 29.184 21.8288 29.68 21.8288 30.24C21.8288 30.792 21.9528 31.288 22.2008 31.728C22.4568 32.16 22.8008 32.5 23.2327 32.748C23.6648 32.996 24.1488 33.12 24.6848 33.12C25.0608 33.12 25.4248 33.06 25.7768 32.94C26.1368 32.812 26.4128 32.636 26.6048 32.412V31.212C26.5248 31.388 26.3888 31.556 26.1968 31.716C26.0048 31.868 25.7768 31.992 25.5128 32.088C25.2568 32.176 24.9808 32.22 24.6848 32.22C24.3248 32.22 24.0008 32.136 23.7128 31.968C23.4328 31.792 23.2088 31.556 23.0408 31.26C22.8808 30.964 22.8008 30.624 22.8008 30.24ZM28.3392 32.52C28.3392 32.696 28.4032 32.852 28.5312 32.988C28.6672 33.116 28.8232 33.18 28.9992 33.18C29.1832 33.18 29.3392 33.116 29.4672 32.988C29.5952 32.852 29.6592 32.696 29.6592 32.52C29.6592 32.336 29.5952 32.18 29.4672 32.052C29.3392 31.924 29.1832 31.86 28.9992 31.86C28.8232 31.86 28.6672 31.924 28.5312 32.052C28.4032 32.18 28.3392 32.336 28.3392 32.52ZM35.5585 33V31.368H34.5145V30.588H35.5585V29.52H34.5145V28.608H35.5585V24.432H37.8145C38.8625 24.432 39.6385 24.644 40.1425 25.068C40.6545 25.492 40.9105 26.108 40.9105 26.916C40.9105 27.732 40.6345 28.372 40.0825 28.836C39.5305 29.292 38.7185 29.52 37.6465 29.52H36.6385V30.588H38.6185V31.368H36.6385V33H35.5585ZM37.4905 28.608C38.2185 28.608 38.7825 28.488 39.1825 28.248C39.5905 28.008 39.7945 27.576 39.7945 26.952C39.7945 26.408 39.6265 26.004 39.2905 25.74C38.9545 25.476 38.4305 25.344 37.7185 25.344H36.6385V28.608H37.4905Z" fill="black"/>
<path opacity="0.5" d="M0.24 63.32H6.636V62.42H4.92H4.716H1.92L4.296 58.868V62.756V62.888V65H5.316V56.6H4.896L0.24 63.32ZM10.6538 59.48V60.38H13.8938V59.48H10.6538ZM11.7938 59.72V65H12.7538V59.72H11.7938ZM19.837 59.48V65H20.797V59.48H19.837ZM14.857 59.48V65H15.817V59.48H14.857ZM15.421 62.408H17.137C17.369 62.408 17.561 62.444 17.713 62.516C17.873 62.58 17.993 62.68 18.073 62.816C18.153 62.944 18.193 63.1 18.193 63.284C18.193 63.468 18.153 63.628 18.073 63.764C17.993 63.892 17.873 63.992 17.713 64.064C17.561 64.128 17.369 64.16 17.137 64.16H15.421V65H17.137C17.521 65 17.865 64.94 18.169 64.82C18.473 64.7 18.713 64.512 18.889 64.256C19.065 64 19.153 63.676 19.153 63.284C19.153 62.884 19.065 62.56 18.889 62.312C18.713 62.056 18.473 61.868 18.169 61.748C17.865 61.628 17.521 61.568 17.137 61.568H15.421V62.408ZM23.0234 62.24C23.0234 61.856 23.1034 61.516 23.2634 61.22C23.4314 60.916 23.6554 60.68 23.9354 60.512C24.2234 60.344 24.5474 60.26 24.9074 60.26C25.2034 60.26 25.4794 60.308 25.7354 60.404C25.9994 60.492 26.2274 60.612 26.4194 60.764C26.6114 60.916 26.7474 61.084 26.8274 61.268V60.068C26.6354 59.844 26.3594 59.672 25.9994 59.552C25.6474 59.424 25.2834 59.36 24.9074 59.36C24.3714 59.36 23.8874 59.484 23.4554 59.732C23.0234 59.98 22.6794 60.32 22.4234 60.752C22.1754 61.184 22.0514 61.68 22.0514 62.24C22.0514 62.792 22.1754 63.288 22.4234 63.728C22.6794 64.16 23.0234 64.5 23.4554 64.748C23.8874 64.996 24.3714 65.12 24.9074 65.12C25.2834 65.12 25.6474 65.06 25.9994 64.94C26.3594 64.812 26.6354 64.636 26.8274 64.412V63.212C26.7474 63.388 26.6114 63.556 26.4194 63.716C26.2274 63.868 25.9994 63.992 25.7354 64.088C25.4794 64.176 25.2034 64.22 24.9074 64.22C24.5474 64.22 24.2234 64.136 23.9354 63.968C23.6554 63.792 23.4314 63.556 23.2634 63.26C23.1034 62.964 23.0234 62.624 23.0234 62.24ZM28.5619 64.52C28.5619 64.696 28.6259 64.852 28.7539 64.988C28.8899 65.116 29.0459 65.18 29.2219 65.18C29.4059 65.18 29.5619 65.116 29.6899 64.988C29.8179 64.852 29.8819 64.696 29.8819 64.52C29.8819 64.336 29.8179 64.18 29.6899 64.052C29.5619 63.924 29.4059 63.86 29.2219 63.86C29.0459 63.86 28.8899 63.924 28.7539 64.052C28.6259 64.18 28.5619 64.336 28.5619 64.52ZM35.7812 65V63.368H34.7372V62.588H35.7812V61.52H34.7372V60.608H35.7812V56.432H38.0372C39.0852 56.432 39.8612 56.644 40.3652 57.068C40.8772 57.492 41.1332 58.108 41.1332 58.916C41.1332 59.732 40.8572 60.372 40.3052 60.836C39.7532 61.292 38.9412 61.52 37.8692 61.52H36.8612V62.588H38.8412V63.368H36.8612V65H35.7812ZM37.7132 60.608C38.4412 60.608 39.0052 60.488 39.4052 60.248C39.8132 60.008 40.0172 59.576 40.0172 58.952C40.0172 58.408 39.8492 58.004 39.5132 57.74C39.1772 57.476 38.6532 57.344 37.9412 57.344H36.8612V60.608H37.7132Z" fill="black"/>
<path opacity="0.5" d="M3.036 92.86C3.444 92.86 3.812 92.804 4.14 92.692C4.476 92.58 4.764 92.428 5.004 92.236C5.252 92.036 5.44 91.808 5.568 91.552C5.704 91.288 5.772 91.008 5.772 90.712C5.772 90.312 5.676 89.944 5.484 89.608C5.3 89.272 5.032 89 4.68 88.792C4.336 88.584 3.924 88.48 3.444 88.48C2.988 88.48 2.58 88.576 2.22 88.768C1.868 88.952 1.588 89.208 1.38 89.536C1.18 89.864 1.08 90.248 1.08 90.688H2.052C2.052 90.44 2.112 90.22 2.232 90.028C2.36 89.836 2.528 89.684 2.736 89.572C2.952 89.46 3.192 89.404 3.456 89.404C3.736 89.404 3.968 89.46 4.152 89.572C4.344 89.684 4.488 89.844 4.584 90.052C4.68 90.252 4.728 90.484 4.728 90.748C4.728 90.948 4.688 91.136 4.608 91.312C4.536 91.488 4.428 91.644 4.284 91.78C4.14 91.908 3.964 92.012 3.756 92.092C3.548 92.164 3.308 92.2 3.036 92.2V92.86ZM3.396 97.12C3.9 97.12 4.348 97.024 4.74 96.832C5.132 96.64 5.44 96.368 5.664 96.016C5.896 95.664 6.012 95.252 6.012 94.78C6.012 94.364 5.932 94.008 5.772 93.712C5.62 93.416 5.404 93.176 5.124 92.992C4.852 92.8 4.536 92.66 4.176 92.572C3.824 92.484 3.444 92.44 3.036 92.44V93.1C3.308 93.1 3.56 93.132 3.792 93.196C4.024 93.26 4.228 93.36 4.404 93.496C4.58 93.624 4.716 93.788 4.812 93.988C4.916 94.18 4.968 94.404 4.968 94.66C4.968 94.964 4.904 95.228 4.776 95.452C4.648 95.676 4.464 95.852 4.224 95.98C3.992 96.1 3.716 96.16 3.396 96.16C3.076 96.16 2.792 96.1 2.544 95.98C2.296 95.86 2.1 95.696 1.956 95.488C1.82 95.28 1.752 95.044 1.752 94.78H0.72C0.72 95.108 0.784 95.416 0.912 95.704C1.04 95.984 1.22 96.232 1.452 96.448C1.684 96.656 1.964 96.82 2.292 96.94C2.62 97.06 2.988 97.12 3.396 97.12ZM10.2084 91.48V92.38H13.4484V91.48H10.2084ZM11.3484 91.72V97H12.3084V91.72H11.3484ZM19.3917 91.48V97H20.3517V91.48H19.3917ZM14.4117 91.48V97H15.3717V91.48H14.4117ZM14.9757 94.408H16.6917C16.9237 94.408 17.1157 94.444 17.2677 94.516C17.4277 94.58 17.5477 94.68 17.6277 94.816C17.7077 94.944 17.7477 95.1 17.7477 95.284C17.7477 95.468 17.7077 95.628 17.6277 95.764C17.5477 95.892 17.4277 95.992 17.2677 96.064C17.1157 96.128 16.9237 96.16 16.6917 96.16H14.9757V97H16.6917C17.0757 97 17.4197 96.94 17.7237 96.82C18.0277 96.7 18.2677 96.512 18.4437 96.256C18.6197 96 18.7077 95.676 18.7077 95.284C18.7077 94.884 18.6197 94.56 18.4437 94.312C18.2677 94.056 18.0277 93.868 17.7237 93.748C17.4197 93.628 17.0757 93.568 16.6917 93.568H14.9757V94.408ZM22.5781 94.24C22.5781 93.856 22.6581 93.516 22.8181 93.22C22.9861 92.916 23.2101 92.68 23.4901 92.512C23.7781 92.344 24.1021 92.26 24.4621 92.26C24.7581 92.26 25.0341 92.308 25.2901 92.404C25.5541 92.492 25.7821 92.612 25.9741 92.764C26.1661 92.916 26.3021 93.084 26.3821 93.268V92.068C26.1901 91.844 25.9141 91.672 25.5541 91.552C25.2021 91.424 24.8381 91.36 24.4621 91.36C23.9261 91.36 23.4421 91.484 23.0101 91.732C22.5781 91.98 22.2341 92.32 21.9781 92.752C21.7301 93.184 21.6061 93.68 21.6061 94.24C21.6061 94.792 21.7301 95.288 21.9781 95.728C22.2341 96.16 22.5781 96.5 23.0101 96.748C23.4421 96.996 23.9261 97.12 24.4621 97.12C24.8381 97.12 25.2021 97.06 25.5541 96.94C25.9141 96.812 26.1901 96.636 26.3821 96.412V95.212C26.3021 95.388 26.1661 95.556 25.9741 95.716C25.7821 95.868 25.5541 95.992 25.2901 96.088C25.0341 96.176 24.7581 96.22 24.4621 96.22C24.1021 96.22 23.7781 96.136 23.4901 95.968C23.2101 95.792 22.9861 95.556 22.8181 95.26C22.6581 94.964 22.5781 94.624 22.5781 94.24ZM28.1166 96.52C28.1166 96.696 28.1806 96.852 28.3086 96.988C28.4446 97.116 28.6006 97.18 28.7766 97.18C28.9606 97.18 29.1166 97.116 29.2446 96.988C29.3726 96.852 29.4366 96.696 29.4366 96.52C29.4366 96.336 29.3726 96.18 29.2446 96.052C29.1166 95.924 28.9606 95.86 28.7766 95.86C28.6006 95.86 28.4446 95.924 28.3086 96.052C28.1806 96.18 28.1166 96.336 28.1166 96.52ZM35.3359 97V95.368H34.2919V94.588H35.3359V93.52H34.2919V92.608H35.3359V88.432H37.5919C38.6399 88.432 39.4159 88.644 39.9199 89.068C40.4319 89.492 40.6879 90.108 40.6879 90.916C40.6879 91.732 40.4119 92.372 39.8599 92.836C39.3079 93.292 38.4959 93.52 37.4239 93.52H36.4159V94.588H38.3959V95.368H36.4159V97H35.3359ZM37.2679 92.608C37.9959 92.608 38.5599 92.488 38.9599 92.248C39.3679 92.008 39.5719 91.576 39.5719 90.952C39.5719 90.408 39.4039 90.004 39.0679 89.74C38.7319 89.476 38.2079 89.344 37.4959 89.344H36.4159V92.608H37.2679Z" fill="black"/>
<path opacity="0.5" d="M0.24 129H6.168V128.04H2.34L5.016 125.316C5.344 124.98 5.612 124.6 5.82 124.176C6.028 123.752 6.132 123.324 6.132 122.892C6.132 122.636 6.08 122.368 5.976 122.088C5.872 121.808 5.712 121.548 5.496 121.308C5.28 121.06 5.004 120.86 4.668 120.708C4.332 120.548 3.932 120.468 3.468 120.468C2.892 120.468 2.396 120.596 1.98 120.852C1.572 121.1 1.26 121.452 1.044 121.908C0.828 122.356 0.72 122.88 0.72 123.48H1.74C1.74 123.056 1.808 122.692 1.944 122.388C2.08 122.076 2.276 121.84 2.532 121.68C2.796 121.512 3.108 121.428 3.468 121.428C3.724 121.428 3.952 121.472 4.152 121.56C4.352 121.648 4.52 121.764 4.656 121.908C4.8 122.052 4.908 122.212 4.98 122.388C5.052 122.564 5.088 122.744 5.088 122.928C5.088 123.152 5.052 123.368 4.98 123.576C4.916 123.776 4.816 123.976 4.68 124.176C4.552 124.368 4.396 124.564 4.212 124.764L0.24 129ZM10.4897 123.48V124.38H13.7297V123.48H10.4897ZM11.6297 123.72V129H12.5897V123.72H11.6297ZM19.673 123.48V129H20.633V123.48H19.673ZM14.693 123.48V129H15.653V123.48H14.693ZM15.257 126.408H16.973C17.205 126.408 17.397 126.444 17.549 126.516C17.709 126.58 17.829 126.68 17.909 126.816C17.989 126.944 18.029 127.1 18.029 127.284C18.029 127.468 17.989 127.628 17.909 127.764C17.829 127.892 17.709 127.992 17.549 128.064C17.397 128.128 17.205 128.16 16.973 128.16H15.257V129H16.973C17.357 129 17.701 128.94 18.005 128.82C18.309 128.7 18.549 128.512 18.725 128.256C18.901 128 18.989 127.676 18.989 127.284C18.989 126.884 18.901 126.56 18.725 126.312C18.549 126.056 18.309 125.868 18.005 125.748C17.701 125.628 17.357 125.568 16.973 125.568H15.257V126.408ZM22.8593 126.24C22.8593 125.856 22.9393 125.516 23.0993 125.22C23.2673 124.916 23.4913 124.68 23.7713 124.512C24.0593 124.344 24.3833 124.26 24.7433 124.26C25.0393 124.26 25.3153 124.308 25.5713 124.404C25.8353 124.492 26.0633 124.612 26.2553 124.764C26.4473 124.916 26.5833 125.084 26.6633 125.268V124.068C26.4713 123.844 26.1953 123.672 25.8353 123.552C25.4833 123.424 25.1193 123.36 24.7433 123.36C24.2073 123.36 23.7233 123.484 23.2913 123.732C22.8593 123.98 22.5153 124.32 22.2593 124.752C22.0113 125.184 21.8873 125.68 21.8873 126.24C21.8873 126.792 22.0113 127.288 22.2593 127.728C22.5153 128.16 22.8593 128.5 23.2913 128.748C23.7233 128.996 24.2073 129.12 24.7433 129.12C25.1193 129.12 25.4833 129.06 25.8353 128.94C26.1953 128.812 26.4713 128.636 26.6633 128.412V127.212C26.5833 127.388 26.4473 127.556 26.2553 127.716C26.0633 127.868 25.8353 127.992 25.5713 128.088C25.3153 128.176 25.0393 128.22 24.7433 128.22C24.3833 128.22 24.0593 128.136 23.7713 127.968C23.4913 127.792 23.2673 127.556 23.0993 127.26C22.9393 126.964 22.8593 126.624 22.8593 126.24ZM28.3978 128.52C28.3978 128.696 28.4618 128.852 28.5898 128.988C28.7258 129.116 28.8818 129.18 29.0578 129.18C29.2418 129.18 29.3978 129.116 29.5258 128.988C29.6538 128.852 29.7178 128.696 29.7178 128.52C29.7178 128.336 29.6538 128.18 29.5258 128.052C29.3978 127.924 29.2418 127.86 29.0578 127.86C28.8818 127.86 28.7258 127.924 28.5898 128.052C28.4618 128.18 28.3978 128.336 28.3978 128.52ZM35.6171 129V127.368H34.5731V126.588H35.6171V125.52H34.5731V124.608H35.6171V120.432H37.8731C38.9211 120.432 39.6971 120.644 40.2011 121.068C40.7131 121.492 40.9691 122.108 40.9691 122.916C40.9691 123.732 40.6931 124.372 40.1411 124.836C39.5891 125.292 38.7771 125.52 37.7051 125.52H36.6971V126.588H38.6771V127.368H36.6971V129H35.6171ZM37.5491 124.608C38.2771 124.608 38.8411 124.488 39.2411 124.248C39.6491 124.008 39.8531 123.576 39.8531 122.952C39.8531 122.408 39.6851 122.004 39.3491 121.74C39.0131 121.476 38.4891 121.344 37.7771 121.344H36.6971V124.608H37.5491Z" fill="black"/>
<path opacity="0.5" d="M0.96 154.256L2.82 153.704V161H3.84V152.48L0.96 153.2V154.256ZM9.06 155.48V156.38H12.3V155.48H9.06ZM10.2 155.72V161H11.16V155.72H10.2ZM18.2433 155.48V161H19.2033V155.48H18.2433ZM13.2633 155.48V161H14.2233V155.48H13.2633ZM13.8273 158.408H15.5433C15.7753 158.408 15.9673 158.444 16.1193 158.516C16.2793 158.58 16.3993 158.68 16.4793 158.816C16.5593 158.944 16.5993 159.1 16.5993 159.284C16.5993 159.468 16.5593 159.628 16.4793 159.764C16.3993 159.892 16.2793 159.992 16.1193 160.064C15.9673 160.128 15.7753 160.16 15.5433 160.16H13.8273V161H15.5433C15.9273 161 16.2713 160.94 16.5753 160.82C16.8793 160.7 17.1193 160.512 17.2953 160.256C17.4713 160 17.5593 159.676 17.5593 159.284C17.5593 158.884 17.4713 158.56 17.2953 158.312C17.1193 158.056 16.8793 157.868 16.5753 157.748C16.2713 157.628 15.9273 157.568 15.5433 157.568H13.8273V158.408ZM21.4297 158.24C21.4297 157.856 21.5097 157.516 21.6697 157.22C21.8377 156.916 22.0617 156.68 22.3417 156.512C22.6297 156.344 22.9537 156.26 23.3137 156.26C23.6097 156.26 23.8857 156.308 24.1417 156.404C24.4057 156.492 24.6337 156.612 24.8257 156.764C25.0177 156.916 25.1537 157.084 25.2337 157.268V156.068C25.0417 155.844 24.7657 155.672 24.4057 155.552C24.0537 155.424 23.6897 155.36 23.3137 155.36C22.7777 155.36 22.2937 155.484 21.8617 155.732C21.4297 155.98 21.0857 156.32 20.8297 156.752C20.5817 157.184 20.4577 157.68 20.4577 158.24C20.4577 158.792 20.5817 159.288 20.8297 159.728C21.0857 160.16 21.4297 160.5 21.8617 160.748C22.2937 160.996 22.7777 161.12 23.3137 161.12C23.6897 161.12 24.0537 161.06 24.4057 160.94C24.7657 160.812 25.0417 160.636 25.2337 160.412V159.212C25.1537 159.388 25.0177 159.556 24.8257 159.716C24.6337 159.868 24.4057 159.992 24.1417 160.088C23.8857 160.176 23.6097 160.22 23.3137 160.22C22.9537 160.22 22.6297 160.136 22.3417 159.968C22.0617 159.792 21.8377 159.556 21.6697 159.26C21.5097 158.964 21.4297 158.624 21.4297 158.24ZM26.9681 160.52C26.9681 160.696 27.0321 160.852 27.1601 160.988C27.2961 161.116 27.4521 161.18 27.6281 161.18C27.8121 161.18 27.9681 161.116 28.0961 160.988C28.2241 160.852 28.2881 160.696 28.2881 160.52C28.2881 160.336 28.2241 160.18 28.0961 160.052C27.9681 159.924 27.8121 159.86 27.6281 159.86C27.4521 159.86 27.2961 159.924 27.1601 160.052C27.0321 160.18 26.9681 160.336 26.9681 160.52ZM34.1874 161V159.368H33.1434V158.588H34.1874V157.52H33.1434V156.608H34.1874V152.432H36.4434C37.4914 152.432 38.2674 152.644 38.7714 153.068C39.2834 153.492 39.5394 154.108 39.5394 154.916C39.5394 155.732 39.2634 156.372 38.7114 156.836C38.1594 157.292 37.3474 157.52 36.2754 157.52H35.2674V158.588H37.2474V159.368H35.2674V161H34.1874ZM36.1194 156.608C36.8474 156.608 37.4114 156.488 37.8114 156.248C38.2194 156.008 38.4234 155.576 38.4234 154.952C38.4234 154.408 38.2554 154.004 37.9194 153.74C37.5834 153.476 37.0594 153.344 36.3474 153.344H35.2674V156.608H36.1194Z" fill="black"/>
<path opacity="0.5" d="M57.24 188H63.168V187.04H59.34L62.016 184.316C62.344 183.98 62.612 183.6 62.82 183.176C63.028 182.752 63.132 182.324 63.132 181.892C63.132 181.636 63.08 181.368 62.976 181.088C62.872 180.808 62.712 180.548 62.496 180.308C62.28 180.06 62.004 179.86 61.668 179.708C61.332 179.548 60.932 179.468 60.468 179.468C59.892 179.468 59.396 179.596 58.98 179.852C58.572 180.1 58.26 180.452 58.044 180.908C57.828 181.356 57.72 181.88 57.72 182.48H58.74C58.74 182.056 58.808 181.692 58.944 181.388C59.08 181.076 59.276 180.84 59.532 180.68C59.796 180.512 60.108 180.428 60.468 180.428C60.724 180.428 60.952 180.472 61.152 180.56C61.352 180.648 61.52 180.764 61.656 180.908C61.8 181.052 61.908 181.212 61.98 181.388C62.052 181.564 62.088 181.744 62.088 181.928C62.088 182.152 62.052 182.368 61.98 182.576C61.916 182.776 61.816 182.976 61.68 183.176C61.552 183.368 61.396 183.564 61.212 183.764L57.24 188ZM66.868 183.86C67.276 183.86 67.644 183.804 67.972 183.692C68.308 183.58 68.596 183.428 68.836 183.236C69.084 183.036 69.272 182.808 69.4 182.552C69.536 182.288 69.604 182.008 69.604 181.712C69.604 181.312 69.508 180.944 69.316 180.608C69.132 180.272 68.864 180 68.512 179.792C68.168 179.584 67.756 179.48 67.276 179.48C66.82 179.48 66.412 179.576 66.052 179.768C65.7 179.952 65.42 180.208 65.212 180.536C65.012 180.864 64.912 181.248 64.912 181.688H65.884C65.884 181.44 65.944 181.22 66.064 181.028C66.192 180.836 66.36 180.684 66.568 180.572C66.784 180.46 67.024 180.404 67.288 180.404C67.568 180.404 67.8 180.46 67.984 180.572C68.176 180.684 68.32 180.844 68.416 181.052C68.512 181.252 68.56 181.484 68.56 181.748C68.56 181.948 68.52 182.136 68.44 182.312C68.368 182.488 68.26 182.644 68.116 182.78C67.972 182.908 67.796 183.012 67.588 183.092C67.38 183.164 67.14 183.2 66.868 183.2V183.86ZM67.228 188.12C67.732 188.12 68.18 188.024 68.572 187.832C68.964 187.64 69.272 187.368 69.496 187.016C69.728 186.664 69.844 186.252 69.844 185.78C69.844 185.364 69.764 185.008 69.604 184.712C69.452 184.416 69.236 184.176 68.956 183.992C68.684 183.8 68.368 183.66 68.008 183.572C67.656 183.484 67.276 183.44 66.868 183.44V184.1C67.14 184.1 67.392 184.132 67.624 184.196C67.856 184.26 68.06 184.36 68.236 184.496C68.412 184.624 68.548 184.788 68.644 184.988C68.748 185.18 68.8 185.404 68.8 185.66C68.8 185.964 68.736 186.228 68.608 186.452C68.48 186.676 68.296 186.852 68.056 186.98C67.824 187.1 67.548 187.16 67.228 187.16C66.908 187.16 66.624 187.1 66.376 186.98C66.128 186.86 65.932 186.696 65.788 186.488C65.652 186.28 65.584 186.044 65.584 185.78H64.552C64.552 186.108 64.616 186.416 64.744 186.704C64.872 186.984 65.052 187.232 65.284 187.448C65.516 187.656 65.796 187.82 66.124 187.94C66.452 188.06 66.82 188.12 67.228 188.12ZM75.3125 185.24C75.3125 184.856 75.3925 184.516 75.5525 184.22C75.7205 183.916 75.9445 183.68 76.2245 183.512C76.5125 183.344 76.8365 183.26 77.1965 183.26C77.4925 183.26 77.7685 183.308 78.0245 183.404C78.2885 183.492 78.5165 183.612 78.7085 183.764C78.9005 183.916 79.0365 184.084 79.1165 184.268V183.068C78.9245 182.844 78.6485 182.672 78.2885 182.552C77.9365 182.424 77.5725 182.36 77.1965 182.36C76.6605 182.36 76.1765 182.484 75.7445 182.732C75.3125 182.98 74.9685 183.32 74.7125 183.752C74.4645 184.184 74.3405 184.68 74.3405 185.24C74.3405 185.792 74.4645 186.288 74.7125 186.728C74.9685 187.16 75.3125 187.5 75.7445 187.748C76.1765 187.996 76.6605 188.12 77.1965 188.12C77.5725 188.12 77.9365 188.06 78.2885 187.94C78.6485 187.812 78.9245 187.636 79.1165 187.412V186.212C79.0365 186.388 78.9005 186.556 78.7085 186.716C78.5165 186.868 78.2885 186.992 78.0245 187.088C77.7685 187.176 77.4925 187.22 77.1965 187.22C76.8365 187.22 76.5125 187.136 76.2245 186.968C75.9445 186.792 75.7205 186.556 75.5525 186.26C75.3925 185.964 75.3125 185.624 75.3125 185.24ZM80.7429 185.48H85.4589C85.4669 185.432 85.4709 185.384 85.4709 185.336C85.4709 185.288 85.4709 185.24 85.4709 185.192C85.4709 184.608 85.3629 184.108 85.1469 183.692C84.9309 183.268 84.6269 182.94 84.2349 182.708C83.8429 182.476 83.3869 182.36 82.8669 182.36C82.3949 182.36 81.9669 182.456 81.5829 182.648C81.2069 182.84 80.8989 183.108 80.6589 183.452C80.4189 183.796 80.2589 184.196 80.1789 184.652C80.1629 184.748 80.1509 184.844 80.1429 184.94C80.1349 185.036 80.1309 185.136 80.1309 185.24C80.1309 185.792 80.2429 186.288 80.4669 186.728C80.6989 187.16 81.0109 187.5 81.4029 187.748C81.8029 187.996 82.2509 188.12 82.7469 188.12C83.2269 188.12 83.6269 188.064 83.9469 187.952C84.2669 187.832 84.5389 187.668 84.7629 187.46C84.9869 187.244 85.1909 186.996 85.3749 186.716L84.5949 186.224C84.4749 186.424 84.3309 186.6 84.1629 186.752C83.9949 186.896 83.8029 187.012 83.5869 187.1C83.3789 187.18 83.1389 187.22 82.8669 187.22C82.5069 187.22 82.1949 187.144 81.9309 186.992C81.6669 186.84 81.4629 186.616 81.3189 186.32C81.1749 186.024 81.1029 185.664 81.1029 185.24L81.1269 184.88C81.1269 184.536 81.2029 184.24 81.3549 183.992C81.5149 183.736 81.7269 183.54 81.9909 183.404C82.2549 183.268 82.5469 183.2 82.8669 183.2C83.1869 183.2 83.4549 183.264 83.6709 183.392C83.8949 183.512 84.0669 183.684 84.1869 183.908C84.3149 184.124 84.3949 184.376 84.4269 184.664H80.7429V185.48ZM87.3507 185.54H91.4307V184.64H87.3507V185.54ZM90.8067 182.48V188H91.7667V182.48H90.8067ZM86.7867 182.48V188H87.7467V182.48H86.7867Z" fill="black"/>
<path opacity="0.5" d="M134.24 188H140.168V187.04H136.34L139.016 184.316C139.344 183.98 139.612 183.6 139.82 183.176C140.028 182.752 140.132 182.324 140.132 181.892C140.132 181.636 140.08 181.368 139.976 181.088C139.872 180.808 139.712 180.548 139.496 180.308C139.28 180.06 139.004 179.86 138.668 179.708C138.332 179.548 137.932 179.468 137.468 179.468C136.892 179.468 136.396 179.596 135.98 179.852C135.572 180.1 135.26 180.452 135.044 180.908C134.828 181.356 134.72 181.88 134.72 182.48H135.74C135.74 182.056 135.808 181.692 135.944 181.388C136.08 181.076 136.276 180.84 136.532 180.68C136.796 180.512 137.108 180.428 137.468 180.428C137.724 180.428 137.952 180.472 138.152 180.56C138.352 180.648 138.52 180.764 138.656 180.908C138.8 181.052 138.908 181.212 138.98 181.388C139.052 181.564 139.088 181.744 139.088 181.928C139.088 182.152 139.052 182.368 138.98 182.576C138.916 182.776 138.816 182.976 138.68 183.176C138.552 183.368 138.396 183.564 138.212 183.764L134.24 188ZM141.072 186.32H147.468V185.42H145.752H145.548H142.752L145.128 181.868V185.756V185.888V188H146.148V179.6H145.728L141.072 186.32ZM152.758 185.24C152.758 184.856 152.838 184.516 152.998 184.22C153.166 183.916 153.39 183.68 153.67 183.512C153.958 183.344 154.282 183.26 154.642 183.26C154.938 183.26 155.214 183.308 155.47 183.404C155.734 183.492 155.962 183.612 156.154 183.764C156.346 183.916 156.482 184.084 156.562 184.268V183.068C156.37 182.844 156.094 182.672 155.734 182.552C155.382 182.424 155.018 182.36 154.642 182.36C154.106 182.36 153.622 182.484 153.19 182.732C152.758 182.98 152.414 183.32 152.158 183.752C151.91 184.184 151.786 184.68 151.786 185.24C151.786 185.792 151.91 186.288 152.158 186.728C152.414 187.16 152.758 187.5 153.19 187.748C153.622 187.996 154.106 188.12 154.642 188.12C155.018 188.12 155.382 188.06 155.734 187.94C156.094 187.812 156.37 187.636 156.562 187.412V186.212C156.482 186.388 156.346 186.556 156.154 186.716C155.962 186.868 155.734 186.992 155.47 187.088C155.214 187.176 154.938 187.22 154.642 187.22C154.282 187.22 153.958 187.136 153.67 186.968C153.39 186.792 153.166 186.556 152.998 186.26C152.838 185.964 152.758 185.624 152.758 185.24ZM158.188 185.48H162.904C162.912 185.432 162.916 185.384 162.916 185.336C162.916 185.288 162.916 185.24 162.916 185.192C162.916 184.608 162.808 184.108 162.592 183.692C162.376 183.268 162.072 182.94 161.68 182.708C161.288 182.476 160.832 182.36 160.312 182.36C159.84 182.36 159.412 182.456 159.028 182.648C158.652 182.84 158.344 183.108 158.104 183.452C157.864 183.796 157.704 184.196 157.624 184.652C157.608 184.748 157.596 184.844 157.588 184.94C157.58 185.036 157.576 185.136 157.576 185.24C157.576 185.792 157.688 186.288 157.912 186.728C158.144 187.16 158.456 187.5 158.848 187.748C159.248 187.996 159.696 188.12 160.192 188.12C160.672 188.12 161.072 188.064 161.392 187.952C161.712 187.832 161.984 187.668 162.208 187.46C162.432 187.244 162.636 186.996 162.82 186.716L162.04 186.224C161.92 186.424 161.776 186.6 161.608 186.752C161.44 186.896 161.248 187.012 161.032 187.1C160.824 187.18 160.584 187.22 160.312 187.22C159.952 187.22 159.64 187.144 159.376 186.992C159.112 186.84 158.908 186.616 158.764 186.32C158.62 186.024 158.548 185.664 158.548 185.24L158.572 184.88C158.572 184.536 158.648 184.24 158.8 183.992C158.96 183.736 159.172 183.54 159.436 183.404C159.7 183.268 159.992 183.2 160.312 183.2C160.632 183.2 160.9 183.264 161.116 183.392C161.34 183.512 161.512 183.684 161.632 183.908C161.76 184.124 161.84 184.376 161.872 184.664H158.188V185.48ZM164.796 185.54H168.876V184.64H164.796V185.54ZM168.252 182.48V188H169.212V182.48H168.252ZM164.232 182.48V188H165.192V182.48H164.232Z" fill="black"/>
<path d="M208.24 188H214.168V187.04H210.34L213.016 184.316C213.344 183.98 213.612 183.6 213.82 183.176C214.028 182.752 214.132 182.324 214.132 181.892C214.132 181.636 214.08 181.368 213.976 181.088C213.872 180.808 213.712 180.548 213.496 180.308C213.28 180.06 213.004 179.86 212.668 179.708C212.332 179.548 211.932 179.468 211.468 179.468C210.892 179.468 210.396 179.596 209.98 179.852C209.572 180.1 209.26 180.452 209.044 180.908C208.828 181.356 208.72 181.88 208.72 182.48H209.74C209.74 182.056 209.808 181.692 209.944 181.388C210.08 181.076 210.276 180.84 210.532 180.68C210.796 180.512 211.108 180.428 211.468 180.428C211.724 180.428 211.952 180.472 212.152 180.56C212.352 180.648 212.52 180.764 212.656 180.908C212.8 181.052 212.908 181.212 212.98 181.388C213.052 181.564 213.088 181.744 213.088 181.928C213.088 182.152 213.052 182.368 212.98 182.576C212.916 182.776 212.816 182.976 212.68 183.176C212.552 183.368 212.396 183.564 212.212 183.764L208.24 188ZM221.12 185.24C221.12 184.68 221.012 184.188 220.796 183.764C220.58 183.34 220.28 183.008 219.896 182.768C219.52 182.528 219.092 182.408 218.612 182.408C218.404 182.408 218.192 182.436 217.976 182.492C217.768 182.54 217.564 182.616 217.364 182.72L217.928 180.5H221.096V179.6H217.136L216.032 184.076C216.32 183.876 216.572 183.724 216.788 183.62C217.012 183.508 217.232 183.432 217.448 183.392C217.672 183.344 217.916 183.32 218.18 183.32C218.54 183.32 218.86 183.4 219.14 183.56C219.428 183.72 219.652 183.944 219.812 184.232C219.98 184.52 220.064 184.856 220.064 185.24C220.064 185.624 219.988 185.96 219.836 186.248C219.692 186.536 219.48 186.76 219.2 186.92C218.92 187.08 218.58 187.16 218.18 187.16C217.876 187.16 217.584 187.096 217.304 186.968C217.024 186.832 216.776 186.66 216.56 186.452C216.352 186.236 216.184 186.008 216.056 185.768L215.192 186.356C215.376 186.676 215.6 186.972 215.864 187.244C216.136 187.508 216.46 187.72 216.836 187.88C217.22 188.04 217.668 188.12 218.18 188.12C218.588 188.12 218.968 188.06 219.32 187.94C219.672 187.82 219.984 187.64 220.256 187.4C220.528 187.16 220.74 186.86 220.892 186.5C221.044 186.14 221.12 185.72 221.12 185.24ZM226.535 185.24C226.535 184.856 226.615 184.516 226.775 184.22C226.943 183.916 227.167 183.68 227.447 183.512C227.735 183.344 228.059 183.26 228.419 183.26C228.715 183.26 228.991 183.308 229.247 183.404C229.511 183.492 229.739 183.612 229.931 183.764C230.123 183.916 230.259 184.084 230.339 184.268V183.068C230.147 182.844 229.871 182.672 229.511 182.552C229.159 182.424 228.795 182.36 228.419 182.36C227.883 182.36 227.399 182.484 226.967 182.732C226.535 182.98 226.191 183.32 225.935 183.752C225.687 184.184 225.563 184.68 225.563 185.24C225.563 185.792 225.687 186.288 225.935 186.728C226.191 187.16 226.535 187.5 226.967 187.748C227.399 187.996 227.883 188.12 228.419 188.12C228.795 188.12 229.159 188.06 229.511 187.94C229.871 187.812 230.147 187.636 230.339 187.412V186.212C230.259 186.388 230.123 186.556 229.931 186.716C229.739 186.868 229.511 186.992 229.247 187.088C228.991 187.176 228.715 187.22 228.419 187.22C228.059 187.22 227.735 187.136 227.447 186.968C227.167 186.792 226.943 186.556 226.775 186.26C226.615 185.964 226.535 185.624 226.535 185.24ZM231.966 185.48H236.682C236.69 185.432 236.694 185.384 236.694 185.336C236.694 185.288 236.694 185.24 236.694 185.192C236.694 184.608 236.586 184.108 236.37 183.692C236.154 183.268 235.85 182.94 235.458 182.708C235.066 182.476 234.61 182.36 234.09 182.36C233.618 182.36 233.19 182.456 232.806 182.648C232.43 182.84 232.122 183.108 231.882 183.452C231.642 183.796 231.482 184.196 231.402 184.652C231.386 184.748 231.374 184.844 231.366 184.94C231.358 185.036 231.354 185.136 231.354 185.24C231.354 185.792 231.466 186.288 231.69 186.728C231.922 187.16 232.234 187.5 232.626 187.748C233.026 187.996 233.474 188.12 233.97 188.12C234.45 188.12 234.85 188.064 235.17 187.952C235.49 187.832 235.762 187.668 235.986 187.46C236.21 187.244 236.414 186.996 236.598 186.716L235.818 186.224C235.698 186.424 235.554 186.6 235.386 186.752C235.218 186.896 235.026 187.012 234.81 187.1C234.602 187.18 234.362 187.22 234.09 187.22C233.73 187.22 233.418 187.144 233.154 186.992C232.89 186.84 232.686 186.616 232.542 186.32C232.398 186.024 232.326 185.664 232.326 185.24L232.35 184.88C232.35 184.536 232.426 184.24 232.578 183.992C232.738 183.736 232.95 183.54 233.214 183.404C233.478 183.268 233.77 183.2 234.09 183.2C234.41 183.2 234.678 183.264 234.894 183.392C235.118 183.512 235.29 183.684 235.41 183.908C235.538 184.124 235.618 184.376 235.65 184.664H231.966V185.48ZM238.573 185.54H242.653V184.64H238.573V185.54ZM242.029 182.48V188H242.989V182.48H242.029ZM238.009 182.48V188H238.969V182.48H238.009Z" fill="black"/>
<path opacity="0.5" d="M281.24 188H287.168V187.04H283.34L286.016 184.316C286.344 183.98 286.612 183.6 286.82 183.176C287.028 182.752 287.132 182.324 287.132 181.892C287.132 181.636 287.08 181.368 286.976 181.088C286.872 180.808 286.712 180.548 286.496 180.308C286.28 180.06 286.004 179.86 285.668 179.708C285.332 179.548 284.932 179.468 284.468 179.468C283.892 179.468 283.396 179.596 282.98 179.852C282.572 180.1 282.26 180.452 282.044 180.908C281.828 181.356 281.72 181.88 281.72 182.48H282.74C282.74 182.056 282.808 181.692 282.944 181.388C283.08 181.076 283.276 180.84 283.532 180.68C283.796 180.512 284.108 180.428 284.468 180.428C284.724 180.428 284.952 180.472 285.152 180.56C285.352 180.648 285.52 180.764 285.656 180.908C285.8 181.052 285.908 181.212 285.98 181.388C286.052 181.564 286.088 181.744 286.088 181.928C286.088 182.152 286.052 182.368 285.98 182.576C285.916 182.776 285.816 182.976 285.68 183.176C285.552 183.368 285.396 183.564 285.212 183.764L281.24 188ZM289.404 185.24C289.404 184.856 289.484 184.516 289.644 184.22C289.812 183.916 290.036 183.68 290.316 183.512C290.604 183.344 290.928 183.26 291.288 183.26C291.648 183.26 291.968 183.344 292.248 183.512C292.536 183.68 292.76 183.916 292.92 184.22C293.088 184.516 293.172 184.856 293.172 185.24C293.172 185.624 293.088 185.964 292.92 186.26C292.76 186.548 292.536 186.776 292.248 186.944C291.968 187.112 291.648 187.196 291.288 187.196C290.928 187.196 290.604 187.112 290.316 186.944C290.036 186.776 289.812 186.548 289.644 186.26C289.484 185.964 289.404 185.624 289.404 185.24ZM291.792 179.6L288.96 183.5C288.8 183.724 288.672 183.984 288.576 184.28C288.48 184.576 288.432 184.896 288.432 185.24C288.432 185.816 288.556 186.32 288.804 186.752C289.06 187.184 289.404 187.52 289.836 187.76C290.268 188 290.752 188.12 291.288 188.12C291.832 188.12 292.316 188 292.74 187.76C293.172 187.52 293.512 187.184 293.76 186.752C294.016 186.32 294.144 185.816 294.144 185.24C294.144 184.856 294.08 184.5 293.952 184.172C293.824 183.836 293.644 183.544 293.412 183.296C293.188 183.048 292.924 182.856 292.62 182.72C292.324 182.584 292.004 182.516 291.66 182.516C291.388 182.516 291.144 182.548 290.928 182.612C290.72 182.676 290.536 182.808 290.376 183.008L290.448 183.068L293.076 179.6H291.792ZM299.676 185.24C299.676 184.856 299.756 184.516 299.916 184.22C300.084 183.916 300.308 183.68 300.588 183.512C300.876 183.344 301.2 183.26 301.56 183.26C301.856 183.26 302.132 183.308 302.388 183.404C302.652 183.492 302.88 183.612 303.072 183.764C303.264 183.916 303.4 184.084 303.48 184.268V183.068C303.288 182.844 303.012 182.672 302.652 182.552C302.3 182.424 301.936 182.36 301.56 182.36C301.024 182.36 300.54 182.484 300.108 182.732C299.676 182.98 299.332 183.32 299.076 183.752C298.828 184.184 298.704 184.68 298.704 185.24C298.704 185.792 298.828 186.288 299.076 186.728C299.332 187.16 299.676 187.5 300.108 187.748C300.54 187.996 301.024 188.12 301.56 188.12C301.936 188.12 302.3 188.06 302.652 187.94C303.012 187.812 303.288 187.636 303.48 187.412V186.212C303.4 186.388 303.264 186.556 303.072 186.716C302.88 186.868 302.652 186.992 302.388 187.088C302.132 187.176 301.856 187.22 301.56 187.22C301.2 187.22 300.876 187.136 300.588 186.968C300.308 186.792 300.084 186.556 299.916 186.26C299.756 185.964 299.676 185.624 299.676 185.24ZM305.106 185.48H309.822C309.83 185.432 309.834 185.384 309.834 185.336C309.834 185.288 309.834 185.24 309.834 185.192C309.834 184.608 309.726 184.108 309.51 183.692C309.294 183.268 308.99 182.94 308.598 182.708C308.206 182.476 307.75 182.36 307.23 182.36C306.758 182.36 306.33 182.456 305.946 182.648C305.57 182.84 305.262 183.108 305.022 183.452C304.782 183.796 304.622 184.196 304.542 184.652C304.526 184.748 304.514 184.844 304.506 184.94C304.498 185.036 304.494 185.136 304.494 185.24C304.494 185.792 304.606 186.288 304.83 186.728C305.062 187.16 305.374 187.5 305.766 187.748C306.166 187.996 306.614 188.12 307.11 188.12C307.59 188.12 307.99 188.064 308.31 187.952C308.63 187.832 308.902 187.668 309.126 187.46C309.35 187.244 309.554 186.996 309.738 186.716L308.958 186.224C308.838 186.424 308.694 186.6 308.526 186.752C308.358 186.896 308.166 187.012 307.95 187.1C307.742 187.18 307.502 187.22 307.23 187.22C306.87 187.22 306.558 187.144 306.294 186.992C306.03 186.84 305.826 186.616 305.682 186.32C305.538 186.024 305.466 185.664 305.466 185.24L305.49 184.88C305.49 184.536 305.566 184.24 305.718 183.992C305.878 183.736 306.09 183.54 306.354 183.404C306.618 183.268 306.91 183.2 307.23 183.2C307.55 183.2 307.818 183.264 308.034 183.392C308.258 183.512 308.43 183.684 308.55 183.908C308.678 184.124 308.758 184.376 308.79 184.664H305.106V185.48ZM311.714 185.54H315.794V184.64H311.714V185.54ZM315.17 182.48V188H316.13V182.48H315.17ZM311.15 182.48V188H312.11V182.48H311.15Z" fill="black"/>
<path opacity="0.5" d="M354.24 188H360.168V187.04H356.34L359.016 184.316C359.344 183.98 359.612 183.6 359.82 183.176C360.028 182.752 360.132 182.324 360.132 181.892C360.132 181.636 360.08 181.368 359.976 181.088C359.872 180.808 359.712 180.548 359.496 180.308C359.28 180.06 359.004 179.86 358.668 179.708C358.332 179.548 357.932 179.468 357.468 179.468C356.892 179.468 356.396 179.596 355.98 179.852C355.572 180.1 355.26 180.452 355.044 180.908C354.828 181.356 354.72 181.88 354.72 182.48H355.74C355.74 182.056 355.808 181.692 355.944 181.388C356.08 181.076 356.276 180.84 356.532 180.68C356.796 180.512 357.108 180.428 357.468 180.428C357.724 180.428 357.952 180.472 358.152 180.56C358.352 180.648 358.52 180.764 358.656 180.908C358.8 181.052 358.908 181.212 358.98 181.388C359.052 181.564 359.088 181.744 359.088 181.928C359.088 182.152 359.052 182.368 358.98 182.576C358.916 182.776 358.816 182.976 358.68 183.176C358.552 183.368 358.396 183.564 358.212 183.764L354.24 188ZM361.192 180.56H365.548L361.984 188H363.052L367.072 179.6H361.192V180.56ZM372.066 185.24C372.066 184.856 372.146 184.516 372.306 184.22C372.474 183.916 372.698 183.68 372.978 183.512C373.266 183.344 373.59 183.26 373.95 183.26C374.246 183.26 374.522 183.308 374.778 183.404C375.042 183.492 375.27 183.612 375.462 183.764C375.654 183.916 375.79 184.084 375.87 184.268V183.068C375.678 182.844 375.402 182.672 375.042 182.552C374.69 182.424 374.326 182.36 373.95 182.36C373.414 182.36 372.93 182.484 372.498 182.732C372.066 182.98 371.722 183.32 371.466 183.752C371.218 184.184 371.094 184.68 371.094 185.24C371.094 185.792 371.218 186.288 371.466 186.728C371.722 187.16 372.066 187.5 372.498 187.748C372.93 187.996 373.414 188.12 373.95 188.12C374.326 188.12 374.69 188.06 375.042 187.94C375.402 187.812 375.678 187.636 375.87 187.412V186.212C375.79 186.388 375.654 186.556 375.462 186.716C375.27 186.868 375.042 186.992 374.778 187.088C374.522 187.176 374.246 187.22 373.95 187.22C373.59 187.22 373.266 187.136 372.978 186.968C372.698 186.792 372.474 186.556 372.306 186.26C372.146 185.964 372.066 185.624 372.066 185.24ZM377.497 185.48H382.213C382.221 185.432 382.225 185.384 382.225 185.336C382.225 185.288 382.225 185.24 382.225 185.192C382.225 184.608 382.117 184.108 381.901 183.692C381.685 183.268 381.381 182.94 380.989 182.708C380.597 182.476 380.141 182.36 379.621 182.36C379.149 182.36 378.721 182.456 378.337 182.648C377.961 182.84 377.653 183.108 377.413 183.452C377.173 183.796 377.013 184.196 376.933 184.652C376.917 184.748 376.905 184.844 376.897 184.94C376.889 185.036 376.885 185.136 376.885 185.24C376.885 185.792 376.997 186.288 377.221 186.728C377.453 187.16 377.765 187.5 378.157 187.748C378.557 187.996 379.005 188.12 379.501 188.12C379.981 188.12 380.381 188.064 380.701 187.952C381.021 187.832 381.293 187.668 381.517 187.46C381.741 187.244 381.945 186.996 382.129 186.716L381.349 186.224C381.229 186.424 381.085 186.6 380.917 186.752C380.749 186.896 380.557 187.012 380.341 187.1C380.133 187.18 379.893 187.22 379.621 187.22C379.261 187.22 378.949 187.144 378.685 186.992C378.421 186.84 378.217 186.616 378.073 186.32C377.929 186.024 377.857 185.664 377.857 185.24L377.881 184.88C377.881 184.536 377.957 184.24 378.109 183.992C378.269 183.736 378.481 183.54 378.745 183.404C379.009 183.268 379.301 183.2 379.621 183.2C379.941 183.2 380.209 183.264 380.425 183.392C380.649 183.512 380.821 183.684 380.941 183.908C381.069 184.124 381.149 184.376 381.181 184.664H377.497V185.48ZM384.105 185.54H388.185V184.64H384.105V185.54ZM387.561 182.48V188H388.521V182.48H387.561ZM383.541 182.48V188H384.501V182.48H383.541Z" fill="black"/>
<path opacity="0.5" d="M426.24 188H432.168V187.04H428.34L431.016 184.316C431.344 183.98 431.612 183.6 431.82 183.176C432.028 182.752 432.132 182.324 432.132 181.892C432.132 181.636 432.08 181.368 431.976 181.088C431.872 180.808 431.712 180.548 431.496 180.308C431.28 180.06 431.004 179.86 430.668 179.708C430.332 179.548 429.932 179.468 429.468 179.468C428.892 179.468 428.396 179.596 427.98 179.852C427.572 180.1 427.26 180.452 427.044 180.908C426.828 181.356 426.72 181.88 426.72 182.48H427.74C427.74 182.056 427.808 181.692 427.944 181.388C428.08 181.076 428.276 180.84 428.532 180.68C428.796 180.512 429.108 180.428 429.468 180.428C429.724 180.428 429.952 180.472 430.152 180.56C430.352 180.648 430.52 180.764 430.656 180.908C430.8 181.052 430.908 181.212 430.98 181.388C431.052 181.564 431.088 181.744 431.088 181.928C431.088 182.152 431.052 182.368 430.98 182.576C430.916 182.776 430.816 182.976 430.68 183.176C430.552 183.368 430.396 183.564 430.212 183.764L426.24 188ZM433.792 181.628C433.792 181.956 433.848 182.252 433.96 182.516C434.072 182.772 434.228 182.992 434.428 183.176C434.636 183.36 434.88 183.5 435.16 183.596C435.448 183.692 435.764 183.74 436.108 183.74C436.452 183.74 436.764 183.692 437.044 183.596C437.332 183.5 437.576 183.36 437.776 183.176C437.984 182.992 438.144 182.772 438.256 182.516C438.368 182.252 438.424 181.956 438.424 181.628C438.424 181.332 438.364 181.056 438.244 180.8C438.132 180.536 437.972 180.308 437.764 180.116C437.556 179.916 437.308 179.76 437.02 179.648C436.74 179.536 436.436 179.48 436.108 179.48C435.668 179.48 435.272 179.576 434.92 179.768C434.576 179.96 434.3 180.22 434.092 180.548C433.892 180.868 433.792 181.228 433.792 181.628ZM434.764 181.748C434.764 181.484 434.82 181.248 434.932 181.04C435.052 180.832 435.212 180.672 435.412 180.56C435.62 180.44 435.852 180.38 436.108 180.38C436.372 180.38 436.604 180.44 436.804 180.56C437.004 180.672 437.16 180.832 437.272 181.04C437.392 181.248 437.452 181.484 437.452 181.748C437.452 182.012 437.388 182.244 437.26 182.444C437.14 182.644 436.976 182.8 436.768 182.912C436.568 183.024 436.348 183.08 436.108 183.08C435.868 183.08 435.644 183.024 435.436 182.912C435.236 182.8 435.072 182.644 434.944 182.444C434.824 182.244 434.764 182.012 434.764 181.748ZM433.492 185.72C433.492 186.048 433.556 186.356 433.684 186.644C433.82 186.932 434.004 187.188 434.236 187.412C434.476 187.636 434.752 187.812 435.064 187.94C435.384 188.06 435.732 188.12 436.108 188.12C436.484 188.12 436.828 188.06 437.14 187.94C437.46 187.812 437.736 187.636 437.968 187.412C438.208 187.188 438.392 186.932 438.52 186.644C438.656 186.356 438.724 186.048 438.724 185.72C438.724 185.336 438.652 184.996 438.508 184.7C438.372 184.396 438.18 184.144 437.932 183.944C437.692 183.736 437.412 183.58 437.092 183.476C436.78 183.372 436.452 183.32 436.108 183.32C435.764 183.32 435.432 183.372 435.112 183.476C434.8 183.58 434.52 183.736 434.272 183.944C434.032 184.144 433.84 184.396 433.696 184.7C433.56 184.996 433.492 185.336 433.492 185.72ZM434.464 185.6C434.464 185.296 434.54 185.024 434.692 184.784C434.852 184.536 435.056 184.34 435.304 184.196C435.56 184.052 435.828 183.98 436.108 183.98C436.388 183.98 436.652 184.052 436.9 184.196C437.156 184.34 437.36 184.536 437.512 184.784C437.672 185.024 437.752 185.296 437.752 185.6C437.752 185.944 437.672 186.236 437.512 186.476C437.36 186.716 437.156 186.9 436.9 187.028C436.652 187.156 436.388 187.22 436.108 187.22C435.828 187.22 435.56 187.156 435.304 187.028C435.056 186.9 434.852 186.716 434.692 186.476C434.54 186.236 434.464 185.944 434.464 185.6ZM444.312 185.24C444.312 184.856 444.392 184.516 444.552 184.22C444.72 183.916 444.944 183.68 445.224 183.512C445.512 183.344 445.836 183.26 446.196 183.26C446.492 183.26 446.768 183.308 447.024 183.404C447.288 183.492 447.516 183.612 447.708 183.764C447.9 183.916 448.036 184.084 448.116 184.268V183.068C447.924 182.844 447.648 182.672 447.288 182.552C446.936 182.424 446.572 182.36 446.196 182.36C445.66 182.36 445.176 182.484 444.744 182.732C444.312 182.98 443.968 183.32 443.712 183.752C443.464 184.184 443.34 184.68 443.34 185.24C443.34 185.792 443.464 186.288 443.712 186.728C443.968 187.16 444.312 187.5 444.744 187.748C445.176 187.996 445.66 188.12 446.196 188.12C446.572 188.12 446.936 188.06 447.288 187.94C447.648 187.812 447.924 187.636 448.116 187.412V186.212C448.036 186.388 447.9 186.556 447.708 186.716C447.516 186.868 447.288 186.992 447.024 187.088C446.768 187.176 446.492 187.22 446.196 187.22C445.836 187.22 445.512 187.136 445.224 186.968C444.944 186.792 444.72 186.556 444.552 186.26C444.392 185.964 444.312 185.624 444.312 185.24ZM449.743 185.48H454.459C454.467 185.432 454.471 185.384 454.471 185.336C454.471 185.288 454.471 185.24 454.471 185.192C454.471 184.608 454.363 184.108 454.147 183.692C453.931 183.268 453.627 182.94 453.235 182.708C452.843 182.476 452.387 182.36 451.867 182.36C451.395 182.36 450.967 182.456 450.583 182.648C450.207 182.84 449.899 183.108 449.659 183.452C449.419 183.796 449.259 184.196 449.179 184.652C449.163 184.748 449.151 184.844 449.143 184.94C449.135 185.036 449.131 185.136 449.131 185.24C449.131 185.792 449.243 186.288 449.467 186.728C449.699 187.16 450.011 187.5 450.403 187.748C450.803 187.996 451.251 188.12 451.747 188.12C452.227 188.12 452.627 188.064 452.947 187.952C453.267 187.832 453.539 187.668 453.763 187.46C453.987 187.244 454.191 186.996 454.375 186.716L453.595 186.224C453.475 186.424 453.331 186.6 453.163 186.752C452.995 186.896 452.803 187.012 452.587 187.1C452.379 187.18 452.139 187.22 451.867 187.22C451.507 187.22 451.195 187.144 450.931 186.992C450.667 186.84 450.463 186.616 450.319 186.32C450.175 186.024 450.103 185.664 450.103 185.24L450.127 184.88C450.127 184.536 450.203 184.24 450.355 183.992C450.515 183.736 450.727 183.54 450.991 183.404C451.255 183.268 451.547 183.2 451.867 183.2C452.187 183.2 452.455 183.264 452.671 183.392C452.895 183.512 453.067 183.684 453.187 183.908C453.315 184.124 453.395 184.376 453.427 184.664H449.743V185.48ZM456.351 185.54H460.431V184.64H456.351V185.54ZM459.807 182.48V188H460.767V182.48H459.807ZM455.787 182.48V188H456.747V182.48H455.787Z" fill="black"/>
<path opacity="0.5" d="M498.24 188H504.168V187.04H500.34L503.016 184.316C503.344 183.98 503.612 183.6 503.82 183.176C504.028 182.752 504.132 182.324 504.132 181.892C504.132 181.636 504.08 181.368 503.976 181.088C503.872 180.808 503.712 180.548 503.496 180.308C503.28 180.06 503.004 179.86 502.668 179.708C502.332 179.548 501.932 179.468 501.468 179.468C500.892 179.468 500.396 179.596 499.98 179.852C499.572 180.1 499.26 180.452 499.044 180.908C498.828 181.356 498.72 181.88 498.72 182.48H499.74C499.74 182.056 499.808 181.692 499.944 181.388C500.08 181.076 500.276 180.84 500.532 180.68C500.796 180.512 501.108 180.428 501.468 180.428C501.724 180.428 501.952 180.472 502.152 180.56C502.352 180.648 502.52 180.764 502.656 180.908C502.8 181.052 502.908 181.212 502.98 181.388C503.052 181.564 503.088 181.744 503.088 181.928C503.088 182.152 503.052 182.368 502.98 182.576C502.916 182.776 502.816 182.976 502.68 183.176C502.552 183.368 502.396 183.564 502.212 183.764L498.24 188ZM510.172 182.36C510.172 182.744 510.088 183.084 509.92 183.38C509.76 183.676 509.536 183.912 509.248 184.088C508.968 184.256 508.648 184.34 508.288 184.34C507.928 184.34 507.604 184.256 507.316 184.088C507.036 183.912 506.812 183.676 506.644 183.38C506.484 183.084 506.404 182.744 506.404 182.36C506.404 181.976 506.484 181.64 506.644 181.352C506.812 181.056 507.036 180.824 507.316 180.656C507.604 180.488 507.928 180.404 508.288 180.404C508.648 180.404 508.968 180.488 509.248 180.656C509.536 180.824 509.76 181.056 509.92 181.352C510.088 181.64 510.172 181.976 510.172 182.36ZM507.784 188L510.616 184.1C510.776 183.876 510.904 183.616 511 183.32C511.096 183.024 511.144 182.704 511.144 182.36C511.144 181.784 511.016 181.28 510.76 180.848C510.512 180.416 510.172 180.08 509.74 179.84C509.316 179.6 508.832 179.48 508.288 179.48C507.752 179.48 507.268 179.6 506.836 179.84C506.404 180.08 506.06 180.416 505.804 180.848C505.556 181.28 505.432 181.784 505.432 182.36C505.432 182.744 505.496 183.104 505.624 183.44C505.752 183.768 505.928 184.056 506.152 184.304C506.384 184.552 506.648 184.744 506.944 184.88C507.248 185.016 507.572 185.084 507.916 185.084C508.188 185.084 508.428 185.052 508.636 184.988C508.852 184.924 509.04 184.792 509.2 184.592L509.128 184.532L506.5 188H507.784ZM516.676 185.24C516.676 184.856 516.756 184.516 516.916 184.22C517.084 183.916 517.308 183.68 517.588 183.512C517.876 183.344 518.2 183.26 518.56 183.26C518.856 183.26 519.132 183.308 519.388 183.404C519.652 183.492 519.88 183.612 520.072 183.764C520.264 183.916 520.4 184.084 520.48 184.268V183.068C520.288 182.844 520.012 182.672 519.652 182.552C519.3 182.424 518.936 182.36 518.56 182.36C518.024 182.36 517.54 182.484 517.108 182.732C516.676 182.98 516.332 183.32 516.076 183.752C515.828 184.184 515.704 184.68 515.704 185.24C515.704 185.792 515.828 186.288 516.076 186.728C516.332 187.16 516.676 187.5 517.108 187.748C517.54 187.996 518.024 188.12 518.56 188.12C518.936 188.12 519.3 188.06 519.652 187.94C520.012 187.812 520.288 187.636 520.48 187.412V186.212C520.4 186.388 520.264 186.556 520.072 186.716C519.88 186.868 519.652 186.992 519.388 187.088C519.132 187.176 518.856 187.22 518.56 187.22C518.2 187.22 517.876 187.136 517.588 186.968C517.308 186.792 517.084 186.556 516.916 186.26C516.756 185.964 516.676 185.624 516.676 185.24ZM522.106 185.48H526.822C526.83 185.432 526.834 185.384 526.834 185.336C526.834 185.288 526.834 185.24 526.834 185.192C526.834 184.608 526.726 184.108 526.51 183.692C526.294 183.268 525.99 182.94 525.598 182.708C525.206 182.476 524.75 182.36 524.23 182.36C523.758 182.36 523.33 182.456 522.946 182.648C522.57 182.84 522.262 183.108 522.022 183.452C521.782 183.796 521.622 184.196 521.542 184.652C521.526 184.748 521.514 184.844 521.506 184.94C521.498 185.036 521.494 185.136 521.494 185.24C521.494 185.792 521.606 186.288 521.83 186.728C522.062 187.16 522.374 187.5 522.766 187.748C523.166 187.996 523.614 188.12 524.11 188.12C524.59 188.12 524.99 188.064 525.31 187.952C525.63 187.832 525.902 187.668 526.126 187.46C526.35 187.244 526.554 186.996 526.738 186.716L525.958 186.224C525.838 186.424 525.694 186.6 525.526 186.752C525.358 186.896 525.166 187.012 524.95 187.1C524.742 187.18 524.502 187.22 524.23 187.22C523.87 187.22 523.558 187.144 523.294 186.992C523.03 186.84 522.826 186.616 522.682 186.32C522.538 186.024 522.466 185.664 522.466 185.24L522.49 184.88C522.49 184.536 522.566 184.24 522.718 183.992C522.878 183.736 523.09 183.54 523.354 183.404C523.618 183.268 523.91 183.2 524.23 183.2C524.55 183.2 524.818 183.264 525.034 183.392C525.258 183.512 525.43 183.684 525.55 183.908C525.678 184.124 525.758 184.376 525.79 184.664H522.106V185.48ZM528.714 185.54H532.794V184.64H528.714V185.54ZM532.17 182.48V188H533.13V182.48H532.17ZM528.15 182.48V188H529.11V182.48H528.15Z" fill="black"/>
<rect x="57" y="29" width="478" height="1" fill="black" fill-opacity="0.1"/>
<rect x="57" y="61" width="478" height="1" fill="black" fill-opacity="0.1"/>
<rect x="57" y="93" width="478" height="1" fill="black" fill-opacity="0.1"/>
<rect x="57" y="125" width="478" height="1" fill="black" fill-opacity="0.1"/>
<rect x="57" y="157" width="478" height="1" fill="black" fill-opacity="0.1"/>
<path d="M125.356 100.79L125.326 101.79C125.336 101.79 125.346 101.79 125.356 101.79L125.356 100.79ZM149.471 104.062L149.409 103.063L149.471 104.062ZM217.433 69.1594L216.461 69.3952C216.466 69.4149 216.472 69.4344 216.478 69.4538L217.433 69.1594ZM272.241 135.691L272.303 134.693C272.272 134.691 272.241 134.691 272.209 134.692L272.241 135.691ZM304.03 111.696L303.179 111.172C303.172 111.182 303.166 111.192 303.161 111.202L304.03 111.696ZM63.4122 157.91C67.214 149.443 75.4202 135.141 86.3649 123.082C97.3423 110.987 110.874 101.367 125.326 101.79L125.385 99.7904C110.022 99.3408 95.9622 109.532 84.8839 121.738C73.773 133.98 65.4591 148.469 61.5878 157.09L63.4122 157.91ZM125.356 101.79C128.329 101.79 132.172 102.699 136.472 103.595C140.696 104.475 145.294 105.323 149.533 105.06L149.409 103.063C145.471 103.308 141.117 102.52 136.88 101.637C132.72 100.771 128.594 99.7899 125.356 99.79L125.356 101.79ZM149.533 105.06C155.935 104.661 170.074 97.184 178.916 71.6683L177.027 71.0134C168.331 96.1056 154.7 102.734 149.409 103.063L149.533 105.06ZM178.916 71.6683C183.318 58.9679 187.505 41.3103 191.279 26.9292C193.173 19.7152 194.959 13.3355 196.621 8.76733C197.454 6.477 198.238 4.69369 198.964 3.49952C199.328 2.90081 199.65 2.49657 199.921 2.25284C200.196 2.00572 200.331 1.99997 200.343 2L200.349 8.52346e-06C199.649 -0.00199568 199.055 0.342311 198.584 0.765718C198.109 1.19251 197.669 1.77925 197.255 2.46031C196.425 3.82571 195.588 5.75719 194.741 8.08367C193.044 12.7491 191.237 19.2112 189.345 26.4214C185.548 40.8888 181.394 58.4097 177.027 71.0134L178.916 71.6683ZM200.343 2C200.366 2.00007 200.492 2.00861 200.735 2.2299C200.981 2.45285 201.271 2.82768 201.595 3.39277C202.241 4.52061 202.912 6.21243 203.6 8.39859C204.972 12.757 206.346 18.8581 207.742 25.794C210.524 39.6131 213.387 56.7209 216.461 69.3952L218.405 68.9237C215.341 56.2936 212.507 39.3298 209.703 25.3993C208.306 18.4605 206.915 12.2674 205.508 7.79813C204.807 5.57049 204.085 3.71517 203.33 2.3983C202.954 1.74104 202.542 1.16912 202.081 0.750404C201.619 0.33003 201.037 0.0019806 200.349 8.52346e-06L200.343 2ZM216.478 69.4538C219.969 80.7895 226.912 97.7378 236.419 111.766C241.172 118.781 246.594 125.107 252.582 129.631C258.575 134.159 265.183 136.918 272.273 136.691L272.209 134.692C265.707 134.9 259.536 132.379 253.788 128.036C248.036 123.689 242.757 117.554 238.074 110.644C228.709 96.824 221.84 80.0701 218.389 68.8651L216.478 69.4538ZM272.179 136.689C278.485 137.081 293.353 132.517 304.9 112.19L303.161 111.202C291.907 131.013 277.69 135.028 272.303 134.693L272.179 136.689ZM304.881 112.221C308.374 106.55 312.6 98.5015 317.275 89.6688C321.959 80.819 327.107 71.1569 332.468 62.2028C337.833 53.2412 343.385 45.0355 348.866 39.081C354.394 33.0759 359.645 29.5879 364.397 29.5879V27.5879C358.735 27.5879 352.969 31.6707 347.395 37.7264C341.774 43.8327 336.139 52.1775 330.752 61.1754C325.36 70.1808 320.189 79.8869 315.507 88.7332C310.816 97.5965 306.628 105.571 303.179 111.172L304.881 112.221ZM364.397 29.5879C366.8 29.5879 370.775 30.6438 376.076 32.5938C381.333 34.5274 387.762 37.2877 395.01 40.588C409.516 47.1927 427.192 55.9078 445.224 64.416C463.233 72.9131 481.571 81.1914 497.312 86.8751C505.182 89.7168 512.427 91.9193 518.674 93.1742C524.896 94.4239 530.236 94.7577 534.241 93.7628L533.759 91.8218C530.192 92.708 525.205 92.4461 519.068 91.2133C512.957 89.9857 505.814 87.8188 497.991 84.994C482.346 79.3448 464.081 71.1017 446.078 62.6072C428.098 54.1238 410.354 45.377 395.839 38.7678C388.577 35.4611 382.095 32.6763 376.767 30.7167C371.484 28.7735 367.2 27.5879 364.397 27.5879V29.5879Z" fill="#2E71F3"/>
<path d="M125.922 101.109C96.0751 100.233 70.6813 140.858 63 158H535V93.0856C504.682 100.634 386.066 28.676 365.217 28.676C344.368 28.676 318.686 89.4368 304.786 112.05C293.374 132.183 278.816 136.486 272.964 136.121C245.75 136.997 225.047 91.99 218.098 69.3772C211.953 43.9919 206.691 1.01637 200.992 1C195.293 0.983638 187.373 46.1807 178.594 71.5656C169.815 96.9504 155.916 104.026 150.063 104.391C141.878 104.901 132.141 101.109 125.922 101.109Z" fill="#2E71F3" fill-opacity="0.1"/>
<circle cx="62" cy="158" r="3.5" fill="white" stroke="#2E71F3" stroke-width="3"/>
<circle cx="153" cy="104" r="3.5" fill="white" stroke="#2E71F3" stroke-width="3"/>
<circle cx="300" cy="119" r="3.5" fill="white" stroke="#2E71F3" stroke-width="3"/>
<circle cx="372" cy="30" r="3.5" fill="white" stroke="#2E71F3" stroke-width="3"/>
<circle cx="449" cy="65" r="3.5" fill="white" stroke="#2E71F3" stroke-width="3"/>
<circle cx="530" cy="93" r="3.5" fill="white" stroke="#2E71F3" stroke-width="3"/>
<g filter="url(#filter0_d)">
<rect x="226" y="60" width="155" height="55" fill="white"/>
</g>
<path opacity="0.5" d="M242.617 77.93H243.86C244.322 77.93 244.722 77.864 245.059 77.732C245.404 77.6 245.671 77.4057 245.862 77.149C246.053 76.8923 246.148 76.5843 246.148 76.225C246.148 75.895 246.093 75.609 245.983 75.367C245.873 75.125 245.715 74.927 245.51 74.773C245.312 74.6117 245.074 74.4943 244.795 74.421C244.516 74.3403 244.205 74.3 243.86 74.3H241.88V82H243.97C244.469 82 244.912 81.9193 245.301 81.758C245.697 81.5893 246.009 81.34 246.236 81.01C246.471 80.6727 246.588 80.251 246.588 79.745C246.588 79.393 246.522 79.0887 246.39 78.832C246.258 78.5753 246.071 78.3663 245.829 78.205C245.594 78.0363 245.319 77.9117 245.004 77.831C244.689 77.7503 244.344 77.71 243.97 77.71H242.617V78.227H243.97C244.219 78.227 244.447 78.26 244.652 78.326C244.857 78.3847 245.033 78.4763 245.18 78.601C245.334 78.7257 245.451 78.8797 245.532 79.063C245.613 79.2463 245.653 79.4553 245.653 79.69C245.653 80.0053 245.58 80.273 245.433 80.493C245.294 80.713 245.096 80.8817 244.839 80.999C244.59 81.1163 244.3 81.175 243.97 81.175H242.815V75.125H243.86C244.249 75.125 244.571 75.2277 244.828 75.433C245.085 75.631 245.213 75.9133 245.213 76.28C245.213 76.522 245.154 76.7273 245.037 76.896C244.92 77.0647 244.758 77.193 244.553 77.281C244.348 77.369 244.117 77.413 243.86 77.413H242.617V77.93ZM252.524 76.94V82H253.404V76.94H252.524ZM247.959 76.94V82H248.839V76.94H247.959ZM248.476 79.624H250.049C250.261 79.624 250.437 79.657 250.577 79.723C250.723 79.7817 250.833 79.8733 250.907 79.998C250.98 80.1153 251.017 80.2583 251.017 80.427C251.017 80.5957 250.98 80.7423 250.907 80.867C250.833 80.9843 250.723 81.076 250.577 81.142C250.437 81.2007 250.261 81.23 250.049 81.23H248.476V82H250.049C250.401 82 250.716 81.945 250.995 81.835C251.273 81.725 251.493 81.5527 251.655 81.318C251.816 81.0833 251.897 80.7863 251.897 80.427C251.897 80.0603 251.816 79.7633 251.655 79.536C251.493 79.3013 251.273 79.129 250.995 79.019C250.716 78.909 250.401 78.854 250.049 78.854H248.476V79.624ZM255.874 84.42V76.94H254.994V84.42H255.874ZM260.109 79.47C260.109 78.92 259.995 78.4507 259.768 78.062C259.54 77.666 259.236 77.3617 258.855 77.149C258.481 76.9363 258.063 76.83 257.601 76.83C257.285 76.83 256.996 76.8923 256.732 77.017C256.475 77.1343 256.251 77.3067 256.061 77.534C255.877 77.7613 255.734 78.04 255.632 78.37C255.529 78.6927 255.478 79.0593 255.478 79.47C255.478 79.8807 255.529 80.251 255.632 80.581C255.734 80.9037 255.877 81.1787 256.061 81.406C256.251 81.6333 256.475 81.8093 256.732 81.934C256.996 82.0513 257.285 82.11 257.601 82.11C258.063 82.11 258.481 82.0037 258.855 81.791C259.236 81.5783 259.54 81.274 259.768 80.878C259.995 80.482 260.109 80.0127 260.109 79.47ZM259.218 79.47C259.218 79.8587 259.137 80.1887 258.976 80.46C258.822 80.7313 258.613 80.9367 258.349 81.076C258.092 81.2153 257.806 81.285 257.491 81.285C257.3 81.285 257.109 81.2447 256.919 81.164C256.728 81.0833 256.552 80.966 256.391 80.812C256.237 80.658 256.112 80.471 256.017 80.251C255.921 80.0237 255.874 79.7633 255.874 79.47C255.874 79.1767 255.921 78.92 256.017 78.7C256.112 78.4727 256.237 78.282 256.391 78.128C256.552 77.974 256.728 77.8567 256.919 77.776C257.109 77.6953 257.3 77.655 257.491 77.655C257.806 77.655 258.092 77.7247 258.349 77.864C258.613 78.0033 258.822 78.2087 258.976 78.48C259.137 78.7513 259.218 79.0813 259.218 79.47ZM265.176 76.94H264.186L262.624 80.856L262.987 80.9L261.381 76.94H260.336L262.272 81.285L260.886 84.42H261.876L265.176 76.94ZM267.711 80.46H269.438V79.635H267.711V80.46ZM268.811 76.94V82H269.691V76.94H268.811ZM266.611 76.94H265.731V78.392C265.731 78.8833 265.789 79.283 265.907 79.591C266.024 79.8917 266.226 80.1117 266.512 80.251C266.805 80.3903 267.205 80.46 267.711 80.46V79.635C267.432 79.635 267.212 79.5947 267.051 79.514C266.889 79.426 266.776 79.2903 266.71 79.107C266.644 78.9237 266.611 78.6853 266.611 78.392V76.94ZM271.29 76.94V82H272.17V76.94H271.29ZM274.04 76.94L271.84 79.03L274.26 82H275.36L272.94 79.03L275.14 76.94H274.04ZM276.585 80.515C276.585 80.3097 276.633 80.1337 276.728 79.987C276.824 79.8403 276.967 79.7267 277.157 79.646C277.355 79.5653 277.601 79.525 277.894 79.525C278.217 79.525 278.507 79.569 278.763 79.657C279.02 79.7377 279.273 79.866 279.522 80.042V79.525C279.471 79.459 279.376 79.3747 279.236 79.272C279.097 79.162 278.91 79.0667 278.675 78.986C278.448 78.898 278.173 78.854 277.85 78.854C277.41 78.854 277.029 78.9237 276.706 79.063C276.384 79.195 276.134 79.3857 275.958 79.635C275.782 79.8843 275.694 80.1887 275.694 80.548C275.694 80.8927 275.771 81.1823 275.925 81.417C276.087 81.6443 276.299 81.8167 276.563 81.934C276.827 82.0513 277.117 82.11 277.432 82.11C277.784 82.11 278.103 82.0513 278.389 81.934C278.675 81.8093 278.903 81.6333 279.071 81.406C279.247 81.1713 279.335 80.8927 279.335 80.57L279.159 80.02C279.159 80.3353 279.093 80.5883 278.961 80.779C278.837 80.9697 278.661 81.109 278.433 81.197C278.206 81.285 277.946 81.329 277.652 81.329C277.454 81.329 277.275 81.2997 277.113 81.241C276.952 81.175 276.824 81.0833 276.728 80.966C276.633 80.8413 276.585 80.691 276.585 80.515ZM276.585 78.128C276.666 78.0693 276.776 77.9997 276.915 77.919C277.062 77.831 277.234 77.7577 277.432 77.699C277.63 77.633 277.85 77.6 278.092 77.6C278.276 77.6 278.448 77.6293 278.609 77.688C278.771 77.7467 278.903 77.8347 279.005 77.952C279.108 78.062 279.159 78.2013 279.159 78.37V82H280.039V78.37C280.039 78.128 279.992 77.9117 279.896 77.721C279.801 77.5303 279.665 77.369 279.489 77.237C279.321 77.105 279.115 77.006 278.873 76.94C278.639 76.8667 278.378 76.83 278.092 76.83C277.638 76.83 277.249 76.8997 276.926 77.039C276.604 77.1783 276.347 77.3177 276.156 77.457L276.585 78.128ZM286.619 79.47C287.008 79.47 287.338 79.415 287.609 79.305C287.888 79.195 288.1 79.0447 288.247 78.854C288.394 78.656 288.467 78.436 288.467 78.194C288.467 77.9447 288.39 77.7173 288.236 77.512C288.089 77.3067 287.884 77.1417 287.62 77.017C287.356 76.8923 287.059 76.83 286.729 76.83C286.377 76.83 286.062 76.9033 285.783 77.05C285.504 77.1893 285.284 77.38 285.123 77.622C284.962 77.864 284.881 78.128 284.881 78.414H285.772C285.772 78.2967 285.805 78.1793 285.871 78.062C285.937 77.9373 286.04 77.8347 286.179 77.754C286.326 77.666 286.509 77.622 286.729 77.622C286.905 77.622 287.055 77.6477 287.18 77.699C287.305 77.7503 287.4 77.8237 287.466 77.919C287.532 78.0143 287.565 78.128 287.565 78.26C287.565 78.4433 287.492 78.601 287.345 78.733C287.198 78.8577 286.956 78.92 286.619 78.92V79.47ZM286.707 82.11C287.066 82.11 287.396 82.0477 287.697 81.923C287.998 81.791 288.236 81.6077 288.412 81.373C288.595 81.131 288.687 80.845 288.687 80.515C288.687 80.1997 288.603 79.943 288.434 79.745C288.265 79.5397 288.023 79.3893 287.708 79.294C287.4 79.1913 287.037 79.14 286.619 79.14V79.69C286.876 79.69 287.092 79.723 287.268 79.789C287.451 79.855 287.587 79.9503 287.675 80.075C287.77 80.1997 287.818 80.35 287.818 80.526C287.818 80.6873 287.774 80.8303 287.686 80.955C287.598 81.0797 287.47 81.175 287.301 81.241C287.14 81.307 286.942 81.34 286.707 81.34C286.326 81.34 286.051 81.2447 285.882 81.054C285.713 80.8633 285.603 80.647 285.552 80.405H284.661C284.72 80.8963 284.925 81.3033 285.277 81.626C285.636 81.9487 286.113 82.11 286.707 82.11ZM290.4 80.515C290.4 80.3097 290.447 80.1337 290.543 79.987C290.638 79.8403 290.781 79.7267 290.972 79.646C291.17 79.5653 291.415 79.525 291.709 79.525C292.031 79.525 292.321 79.569 292.578 79.657C292.834 79.7377 293.087 79.866 293.337 80.042V79.525C293.285 79.459 293.19 79.3747 293.051 79.272C292.911 79.162 292.724 79.0667 292.49 78.986C292.262 78.898 291.987 78.854 291.665 78.854C291.225 78.854 290.843 78.9237 290.521 79.063C290.198 79.195 289.949 79.3857 289.773 79.635C289.597 79.8843 289.509 80.1887 289.509 80.548C289.509 80.8927 289.586 81.1823 289.74 81.417C289.901 81.6443 290.114 81.8167 290.378 81.934C290.642 82.0513 290.931 82.11 291.247 82.11C291.599 82.11 291.918 82.0513 292.204 81.934C292.49 81.8093 292.717 81.6333 292.886 81.406C293.062 81.1713 293.15 80.8927 293.15 80.57L292.974 80.02C292.974 80.3353 292.908 80.5883 292.776 80.779C292.651 80.9697 292.475 81.109 292.248 81.197C292.02 81.285 291.76 81.329 291.467 81.329C291.269 81.329 291.089 81.2997 290.928 81.241C290.766 81.175 290.638 81.0833 290.543 80.966C290.447 80.8413 290.4 80.691 290.4 80.515ZM290.4 78.128C290.48 78.0693 290.59 77.9997 290.73 77.919C290.876 77.831 291.049 77.7577 291.247 77.699C291.445 77.633 291.665 77.6 291.907 77.6C292.09 77.6 292.262 77.6293 292.424 77.688C292.585 77.7467 292.717 77.8347 292.82 77.952C292.922 78.062 292.974 78.2013 292.974 78.37V82H293.854V78.37C293.854 78.128 293.806 77.9117 293.711 77.721C293.615 77.5303 293.48 77.369 293.304 77.237C293.135 77.105 292.93 77.006 292.688 76.94C292.453 76.8667 292.193 76.83 291.907 76.83C291.452 76.83 291.063 76.8997 290.741 77.039C290.418 77.1783 290.161 77.3177 289.971 77.457L290.4 78.128ZM298.035 82H303.469V81.12H299.96L302.413 78.623C302.714 78.315 302.96 77.9667 303.15 77.578C303.341 77.1893 303.436 76.797 303.436 76.401C303.436 76.1663 303.389 75.9207 303.293 75.664C303.198 75.4073 303.051 75.169 302.853 74.949C302.655 74.7217 302.402 74.5383 302.094 74.399C301.786 74.2523 301.42 74.179 300.994 74.179C300.466 74.179 300.012 74.2963 299.63 74.531C299.256 74.7583 298.97 75.081 298.772 75.499C298.574 75.9097 298.475 76.39 298.475 76.94H299.41C299.41 76.5513 299.473 76.2177 299.597 75.939C299.722 75.653 299.902 75.4367 300.136 75.29C300.378 75.136 300.664 75.059 300.994 75.059C301.229 75.059 301.438 75.0993 301.621 75.18C301.805 75.2607 301.959 75.367 302.083 75.499C302.215 75.631 302.314 75.7777 302.38 75.939C302.446 76.1003 302.479 76.2653 302.479 76.434C302.479 76.6393 302.446 76.8373 302.38 77.028C302.322 77.2113 302.23 77.3947 302.105 77.578C301.988 77.754 301.845 77.9337 301.676 78.117L298.035 82ZM309.842 79.47C309.842 78.9567 309.743 78.5057 309.545 78.117C309.347 77.7283 309.072 77.424 308.72 77.204C308.375 76.984 307.983 76.874 307.543 76.874C307.352 76.874 307.158 76.8997 306.96 76.951C306.769 76.995 306.582 77.0647 306.399 77.16L306.916 75.125H309.82V74.3H306.19L305.178 78.403C305.442 78.2197 305.673 78.0803 305.871 77.985C306.076 77.8823 306.278 77.8127 306.476 77.776C306.681 77.732 306.905 77.71 307.147 77.71C307.477 77.71 307.77 77.7833 308.027 77.93C308.291 78.0767 308.496 78.282 308.643 78.546C308.797 78.81 308.874 79.118 308.874 79.47C308.874 79.822 308.804 80.13 308.665 80.394C308.533 80.658 308.339 80.8633 308.082 81.01C307.825 81.1567 307.514 81.23 307.147 81.23C306.868 81.23 306.601 81.1713 306.344 81.054C306.087 80.9293 305.86 80.7717 305.662 80.581C305.471 80.383 305.317 80.174 305.2 79.954L304.408 80.493C304.577 80.7863 304.782 81.0577 305.024 81.307C305.273 81.549 305.57 81.7433 305.915 81.89C306.267 82.0367 306.678 82.11 307.147 82.11C307.521 82.11 307.869 82.055 308.192 81.945C308.515 81.835 308.801 81.67 309.05 81.45C309.299 81.23 309.494 80.955 309.633 80.625C309.772 80.295 309.842 79.91 309.842 79.47ZM314.806 79.47C314.806 79.118 314.879 78.8063 315.026 78.535C315.18 78.2563 315.385 78.04 315.642 77.886C315.906 77.732 316.203 77.655 316.533 77.655C316.804 77.655 317.057 77.699 317.292 77.787C317.534 77.8677 317.743 77.9777 317.919 78.117C318.095 78.2563 318.22 78.4103 318.293 78.579V77.479C318.117 77.2737 317.864 77.116 317.534 77.006C317.211 76.8887 316.878 76.83 316.533 76.83C316.042 76.83 315.598 76.9437 315.202 77.171C314.806 77.3983 314.491 77.71 314.256 78.106C314.029 78.502 313.915 78.9567 313.915 79.47C313.915 79.976 314.029 80.4307 314.256 80.834C314.491 81.23 314.806 81.5417 315.202 81.769C315.598 81.9963 316.042 82.11 316.533 82.11C316.878 82.11 317.211 82.055 317.534 81.945C317.864 81.8277 318.117 81.6663 318.293 81.461V80.361C318.22 80.5223 318.095 80.6763 317.919 80.823C317.743 80.9623 317.534 81.076 317.292 81.164C317.057 81.2447 316.804 81.285 316.533 81.285C316.203 81.285 315.906 81.208 315.642 81.054C315.385 80.8927 315.18 80.6763 315.026 80.405C314.879 80.1337 314.806 79.822 314.806 79.47ZM319.784 79.69H324.107C324.114 79.646 324.118 79.602 324.118 79.558C324.118 79.514 324.118 79.47 324.118 79.426C324.118 78.8907 324.019 78.4323 323.821 78.051C323.623 77.6623 323.344 77.3617 322.985 77.149C322.626 76.9363 322.208 76.83 321.731 76.83C321.298 76.83 320.906 76.918 320.554 77.094C320.209 77.27 319.927 77.5157 319.707 77.831C319.487 78.1463 319.34 78.513 319.267 78.931C319.252 79.019 319.241 79.107 319.234 79.195C319.227 79.283 319.223 79.3747 319.223 79.47C319.223 79.976 319.326 80.4307 319.531 80.834C319.744 81.23 320.03 81.5417 320.389 81.769C320.756 81.9963 321.166 82.11 321.621 82.11C322.061 82.11 322.428 82.0587 322.721 81.956C323.014 81.846 323.264 81.6957 323.469 81.505C323.674 81.307 323.861 81.0797 324.03 80.823L323.315 80.372C323.205 80.5553 323.073 80.7167 322.919 80.856C322.765 80.988 322.589 81.0943 322.391 81.175C322.2 81.2483 321.98 81.285 321.731 81.285C321.401 81.285 321.115 81.2153 320.873 81.076C320.631 80.9367 320.444 80.7313 320.312 80.46C320.18 80.1887 320.114 79.8587 320.114 79.47L320.136 79.14C320.136 78.8247 320.206 78.5533 320.345 78.326C320.492 78.0913 320.686 77.9117 320.928 77.787C321.17 77.6623 321.438 77.6 321.731 77.6C322.024 77.6 322.27 77.6587 322.468 77.776C322.673 77.886 322.831 78.0437 322.941 78.249C323.058 78.447 323.132 78.678 323.161 78.942H319.784V79.69ZM325.841 79.745H329.581V78.92H325.841V79.745ZM329.009 76.94V82H329.889V76.94H329.009ZM325.324 76.94V82H326.204V76.94H325.324ZM330.774 76.94V77.765H333.744V76.94H330.774ZM331.819 77.16V82H332.699V77.16H331.819ZM335.353 82L337.223 79.36H336.255L334.385 82H335.353ZM338.565 82V76.94H337.685V82H338.565ZM338.048 79.206H336.475C336.262 79.206 336.082 79.1803 335.936 79.129C335.796 79.0703 335.69 78.986 335.617 78.876C335.543 78.766 335.507 78.6267 335.507 78.458C335.507 78.2893 335.543 78.15 335.617 78.04C335.69 77.93 335.796 77.8493 335.936 77.798C336.082 77.7393 336.262 77.71 336.475 77.71H338.048V76.94H336.475C336.13 76.94 335.815 76.9913 335.529 77.094C335.25 77.1967 335.03 77.358 334.869 77.578C334.707 77.798 334.627 78.0913 334.627 78.458C334.627 78.8173 334.707 79.1107 334.869 79.338C335.03 79.558 335.25 79.7193 335.529 79.822C335.815 79.9247 336.13 79.976 336.475 79.976H338.048V79.206ZM342.122 77.655C342.452 77.655 342.745 77.732 343.002 77.886C343.266 78.04 343.471 78.2563 343.618 78.535C343.772 78.8063 343.849 79.118 343.849 79.47C343.849 79.822 343.772 80.1337 343.618 80.405C343.471 80.6763 343.266 80.8927 343.002 81.054C342.745 81.208 342.452 81.285 342.122 81.285C341.792 81.285 341.495 81.208 341.231 81.054C340.974 80.8927 340.769 80.6763 340.615 80.405C340.461 80.1337 340.384 79.822 340.384 79.47L339.504 78.81C339.504 79.536 339.618 80.1447 339.845 80.636C340.08 81.1273 340.395 81.4977 340.791 81.747C341.187 81.989 341.631 82.11 342.122 82.11C342.621 82.11 343.064 81.9963 343.453 81.769C343.849 81.5417 344.161 81.23 344.388 80.834C344.623 80.4307 344.74 79.976 344.74 79.47C344.74 78.9567 344.623 78.502 344.388 78.106C344.161 77.71 343.849 77.3983 343.453 77.171C343.064 76.9437 342.621 76.83 342.122 76.83V77.655ZM339.988 79.47H340.384C340.384 79.1767 340.435 78.92 340.538 78.7C340.648 78.4727 340.787 78.282 340.956 78.128C341.132 77.974 341.323 77.8567 341.528 77.776C341.733 77.6953 341.931 77.655 342.122 77.655V76.83C341.807 76.83 341.517 76.8923 341.253 77.017C340.996 77.1343 340.773 77.3067 340.582 77.534C340.391 77.7613 340.245 78.04 340.142 78.37C340.039 78.6927 339.988 79.0593 339.988 79.47ZM339.504 78.81L340.274 79.393V78.26C340.274 77.9813 340.3 77.7027 340.351 77.424C340.402 77.1453 340.49 76.8813 340.615 76.632C340.747 76.3827 340.923 76.159 341.143 75.961C341.37 75.763 341.656 75.609 342.001 75.499C342.404 75.367 342.764 75.202 343.079 75.004C343.402 74.806 343.662 74.575 343.86 74.311C344.058 74.0397 344.175 73.7427 344.212 73.42H343.343C343.292 73.684 343.141 73.937 342.892 74.179C342.65 74.4137 342.28 74.6153 341.781 74.784C341.341 74.938 340.974 75.1397 340.681 75.389C340.388 75.631 340.153 75.9207 339.977 76.258C339.808 76.5953 339.687 76.9767 339.614 77.402C339.541 77.8273 339.504 78.2967 339.504 78.81ZM346.774 84.42V76.94H345.894V84.42H346.774ZM351.009 79.47C351.009 78.92 350.895 78.4507 350.668 78.062C350.441 77.666 350.136 77.3617 349.755 77.149C349.381 76.9363 348.963 76.83 348.501 76.83C348.186 76.83 347.896 76.8923 347.632 77.017C347.375 77.1343 347.152 77.3067 346.961 77.534C346.778 77.7613 346.635 78.04 346.532 78.37C346.429 78.6927 346.378 79.0593 346.378 79.47C346.378 79.8807 346.429 80.251 346.532 80.581C346.635 80.9037 346.778 81.1787 346.961 81.406C347.152 81.6333 347.375 81.8093 347.632 81.934C347.896 82.0513 348.186 82.11 348.501 82.11C348.963 82.11 349.381 82.0037 349.755 81.791C350.136 81.5783 350.441 81.274 350.668 80.878C350.895 80.482 351.009 80.0127 351.009 79.47ZM350.118 79.47C350.118 79.8587 350.037 80.1887 349.876 80.46C349.722 80.7313 349.513 80.9367 349.249 81.076C348.992 81.2153 348.706 81.285 348.391 81.285C348.2 81.285 348.01 81.2447 347.819 81.164C347.628 81.0833 347.452 80.966 347.291 80.812C347.137 80.658 347.012 80.471 346.917 80.251C346.822 80.0237 346.774 79.7633 346.774 79.47C346.774 79.1767 346.822 78.92 346.917 78.7C347.012 78.4727 347.137 78.282 347.291 78.128C347.452 77.974 347.628 77.8567 347.819 77.776C348.01 77.6953 348.2 77.655 348.391 77.655C348.706 77.655 348.992 77.7247 349.249 77.864C349.513 78.0033 349.722 78.2087 349.876 78.48C350.037 78.7513 350.118 79.0813 350.118 79.47ZM352.948 82L354.818 79.36H353.85L351.98 82H352.948ZM356.16 82V76.94H355.28V82H356.16ZM355.643 79.206H354.07C353.858 79.206 353.678 79.1803 353.531 79.129C353.392 79.0703 353.286 78.986 353.212 78.876C353.139 78.766 353.102 78.6267 353.102 78.458C353.102 78.2893 353.139 78.15 353.212 78.04C353.286 77.93 353.392 77.8493 353.531 77.798C353.678 77.7393 353.858 77.71 354.07 77.71H355.643V76.94H354.07C353.726 76.94 353.41 76.9913 353.124 77.094C352.846 77.1967 352.626 77.358 352.464 77.578C352.303 77.798 352.222 78.0913 352.222 78.458C352.222 78.8173 352.303 79.1107 352.464 79.338C352.626 79.558 352.846 79.7193 353.124 79.822C353.41 79.9247 353.726 79.976 354.07 79.976H355.643V79.206ZM357.76 81.56C357.76 81.7213 357.819 81.8643 357.936 81.989C358.061 82.1063 358.204 82.165 358.365 82.165C358.534 82.165 358.677 82.1063 358.794 81.989C358.911 81.8643 358.97 81.7213 358.97 81.56C358.97 81.3913 358.911 81.2483 358.794 81.131C358.677 81.0137 358.534 80.955 358.365 80.955C358.204 80.955 358.061 81.0137 357.936 81.131C357.819 81.2483 357.76 81.3913 357.76 81.56ZM357.76 77.38C357.76 77.5413 357.819 77.6843 357.936 77.809C358.061 77.9263 358.204 77.985 358.365 77.985C358.534 77.985 358.677 77.9263 358.794 77.809C358.911 77.6843 358.97 77.5413 358.97 77.38C358.97 77.2113 358.911 77.0683 358.794 76.951C358.677 76.8337 358.534 76.775 358.365 76.775C358.204 76.775 358.061 76.8337 357.936 76.951C357.819 77.0683 357.76 77.2113 357.76 77.38Z" fill="black"/>
<path d="M242.04 92.694L244.055 92.096V100H245.16V90.77L242.04 91.55V92.694ZM251.01 100H257.432V98.96H253.285L256.184 96.009C256.539 95.645 256.83 95.2333 257.055 94.774C257.28 94.3147 257.393 93.851 257.393 93.383C257.393 93.1057 257.337 92.8153 257.224 92.512C257.111 92.2087 256.938 91.927 256.704 91.667C256.47 91.3983 256.171 91.1817 255.807 91.017C255.443 90.8437 255.01 90.757 254.507 90.757C253.883 90.757 253.346 90.8957 252.895 91.173C252.453 91.4417 252.115 91.823 251.881 92.317C251.647 92.8023 251.53 93.37 251.53 94.02H252.635C252.635 93.5607 252.709 93.1663 252.856 92.837C253.003 92.499 253.216 92.2433 253.493 92.07C253.779 91.888 254.117 91.797 254.507 91.797C254.784 91.797 255.031 91.8447 255.248 91.94C255.465 92.0353 255.647 92.161 255.794 92.317C255.95 92.473 256.067 92.6463 256.145 92.837C256.223 93.0277 256.262 93.2227 256.262 93.422C256.262 93.6647 256.223 93.8987 256.145 94.124C256.076 94.3407 255.967 94.5573 255.82 94.774C255.681 94.982 255.512 95.1943 255.313 95.411L251.01 100ZM264.963 97.01C264.963 96.4033 264.846 95.8703 264.612 95.411C264.378 94.9517 264.053 94.592 263.637 94.332C263.23 94.072 262.766 93.942 262.246 93.942C262.021 93.942 261.791 93.9723 261.557 94.033C261.332 94.085 261.111 94.1673 260.894 94.28L261.505 91.875H264.937V90.9H260.647L259.451 95.749C259.763 95.5323 260.036 95.3677 260.27 95.255C260.513 95.1337 260.751 95.0513 260.985 95.008C261.228 94.956 261.492 94.93 261.778 94.93C262.168 94.93 262.515 95.0167 262.818 95.19C263.13 95.3633 263.373 95.606 263.546 95.918C263.728 96.23 263.819 96.594 263.819 97.01C263.819 97.426 263.737 97.79 263.572 98.102C263.416 98.414 263.187 98.6567 262.883 98.83C262.58 99.0033 262.212 99.09 261.778 99.09C261.449 99.09 261.133 99.0207 260.829 98.882C260.526 98.7347 260.257 98.5483 260.023 98.323C259.798 98.089 259.616 97.842 259.477 97.582L258.541 98.219C258.741 98.5657 258.983 98.8863 259.269 99.181C259.564 99.467 259.915 99.6967 260.322 99.87C260.738 100.043 261.224 100.13 261.778 100.13C262.22 100.13 262.632 100.065 263.013 99.935C263.395 99.805 263.733 99.61 264.027 99.35C264.322 99.09 264.552 98.765 264.716 98.375C264.881 97.985 264.963 97.53 264.963 97.01ZM267.114 95.45C267.114 94.9213 267.166 94.436 267.27 93.994C267.374 93.5433 267.526 93.1577 267.725 92.837C267.925 92.5077 268.163 92.2563 268.44 92.083C268.726 91.901 269.043 91.81 269.389 91.81C269.667 91.81 269.922 91.8707 270.156 91.992C270.399 92.1047 270.611 92.2693 270.793 92.486C270.984 92.694 271.14 92.9497 271.261 93.253C271.391 93.5563 271.491 93.8943 271.56 94.267C271.63 94.631 271.664 95.0253 271.664 95.45C271.664 95.9787 271.612 96.4683 271.508 96.919C271.404 97.361 271.253 97.7467 271.053 98.076C270.854 98.3967 270.616 98.648 270.338 98.83C270.061 99.0033 269.745 99.09 269.389 99.09C269.112 99.09 268.852 99.0337 268.609 98.921C268.375 98.7997 268.163 98.635 267.972 98.427C267.79 98.2103 267.634 97.9503 267.504 97.647C267.383 97.3437 267.288 97.01 267.218 96.646C267.149 96.2733 267.114 95.8747 267.114 95.45ZM266.009 95.45C266.009 95.996 266.061 96.5073 266.165 96.984C266.269 97.452 266.421 97.881 266.62 98.271C266.82 98.661 267.058 98.9947 267.335 99.272C267.613 99.5493 267.925 99.7617 268.271 99.909C268.618 100.056 268.991 100.13 269.389 100.13C269.892 100.13 270.347 100.017 270.754 99.792C271.17 99.558 271.526 99.233 271.82 98.817C272.124 98.3923 272.358 97.894 272.522 97.322C272.687 96.75 272.769 96.126 272.769 95.45C272.769 94.904 272.717 94.397 272.613 93.929C272.509 93.4523 272.358 93.019 272.158 92.629C271.959 92.239 271.721 91.9053 271.443 91.628C271.166 91.3507 270.854 91.1383 270.507 90.991C270.161 90.8437 269.788 90.77 269.389 90.77C268.887 90.77 268.427 90.887 268.011 91.121C267.604 91.3463 267.249 91.6713 266.945 92.096C266.651 92.512 266.421 93.006 266.256 93.578C266.092 94.15 266.009 94.774 266.009 95.45ZM278.443 100V98.232H277.312V97.387H278.443V96.23H277.312V95.242H278.443V90.718H280.887C282.022 90.718 282.863 90.9477 283.409 91.407C283.963 91.8663 284.241 92.5337 284.241 93.409C284.241 94.293 283.942 94.9863 283.344 95.489C282.746 95.983 281.866 96.23 280.705 96.23H279.613V97.387H281.758V98.232H279.613V100H278.443ZM280.536 95.242C281.324 95.242 281.935 95.112 282.369 94.852C282.811 94.592 283.032 94.124 283.032 93.448C283.032 92.8587 282.85 92.421 282.486 92.135C282.122 91.849 281.554 91.706 280.783 91.706H279.613V95.242H280.536Z" fill="black"/>
<circle cx="226" cy="88" r="3.5" fill="white" stroke="#ED0F48" stroke-width="3"/>
<defs>
<filter id="filter0_d" x="176" y="15" width="255" height="155" filterUnits="userSpaceOnUse" color-interpolation-filters="sRGB">
<feFlood flood-opacity="0" result="BackgroundImageFix"/>
<feColorMatrix in="SourceAlpha" type="matrix" values="0 0 0 0 0 0 0 0 0 0 0 0 0 0 0 0 0 0 127 0"/>
<feOffset dy="5"/>
<feGaussianBlur stdDeviation="25"/>
<feColorMatrix type="matrix" values="0 0 0 0 0 0 0 0 0 0 0 0 0 0 0 0 0 0 0.15 0"/>
<feBlend mode="normal" in2="BackgroundImageFix" result="effect1_dropShadow"/>
<feBlend mode="normal" in="SourceGraphic" in2="effect1_dropShadow" result="shape"/>
</filter>
</defs>
</svg>
